<svg width="338" height="350" viewBox="0 0 338 350" fill="none" xmlns="http://www.w3.org/2000/svg">
<path fill-rule="evenodd" clip-rule="evenodd" d="M168.715 157.22C179.945 157.22 189.304 166.311 189.304 177.541C189.304 189.038 179.945 198.129 168.715 198.129C157.485 198.129 148.395 189.038 148.395 177.541C148.395 166.311 157.485 157.22 168.715 157.22ZM168.715 168.45C173.796 168.45 177.806 172.728 177.806 177.541C177.806 182.621 173.796 186.899 168.715 186.899C163.635 186.899 159.624 182.621 159.624 177.541C159.624 172.728 163.635 168.45 168.715 168.45Z" fill="#004A74"/>
<path d="M216.044 135.028C215.777 135.296 215.777 135.563 215.777 135.83C215.777 136.098 216.044 136.365 216.311 136.632C216.311 136.9 216.579 136.9 216.579 136.9C217.114 137.435 217.648 137.702 217.916 137.702C218.451 137.702 218.718 137.702 218.718 137.435C219.253 137.167 219.253 136.632 218.985 136.365C218.985 135.83 218.451 135.028 217.916 134.761C217.916 134.493 217.648 134.226 217.648 134.226C217.114 133.156 216.846 132.354 216.846 131.552C216.846 130.75 217.381 129.948 218.183 129.413C218.183 129.146 218.183 129.146 218.451 129.146C219.253 128.344 220.055 128.076 221.124 128.344C221.926 128.344 222.996 128.878 223.798 129.413C224.333 130.215 224.868 131.017 225.135 131.82C225.402 132.889 225.402 133.691 224.868 134.493L222.729 133.424C222.996 133.156 222.996 132.889 222.729 132.622C222.729 132.087 222.461 131.552 221.926 131.285C221.659 131.017 221.124 130.75 220.857 130.75C220.59 130.75 220.055 130.75 219.787 131.017C219.787 131.017 219.787 131.017 219.52 131.285C219.52 131.285 219.253 131.552 219.253 131.82C219.253 132.087 219.253 132.354 219.52 132.889C219.787 132.889 219.787 132.889 219.787 133.156C220.59 133.691 221.124 134.761 221.392 135.563C221.659 136.632 221.659 137.969 220.59 139.039C220.59 139.306 220.59 139.306 220.59 139.306C219.787 140.108 218.718 140.376 217.648 140.108C216.579 139.841 215.777 139.306 214.975 138.771C214.707 138.504 214.707 138.504 214.707 138.504C213.905 137.702 213.638 136.9 213.37 136.098C213.37 135.028 213.638 134.226 214.172 133.424L216.044 135.028ZM113.905 131.82C114.172 132.087 114.44 132.622 114.707 132.889C115.509 133.691 116.579 134.493 117.381 135.296C119.253 136.632 120.857 137.702 121.926 136.365C122.729 135.296 122.996 134.226 122.461 133.156C121.926 131.82 120.322 130.215 117.648 127.809L119.253 125.937C122.194 128.344 123.798 130.483 124.6 132.087C125.67 134.226 125.402 136.098 123.798 137.969C121.392 140.643 118.451 139.306 116.044 137.167C114.975 136.365 113.905 135.296 113.103 134.493C112.836 134.226 112.568 133.959 112.301 133.691L113.905 131.82ZM127.274 132.087L121.392 123.531L122.996 122.194L132.354 124.066L128.878 118.718L131.017 117.381L135.83 125.403L136.632 126.472L134.761 127.542L125.67 125.135L129.413 130.75L127.274 132.087ZM135.563 114.975L139.841 123.531L137.702 124.6L133.156 116.044L135.563 114.975ZM139.574 112.034L145.188 117.916L145.723 110.162L148.13 110.429L146.525 121.927L137.969 113.638L139.574 112.034ZM158.825 109.092C158.29 109.36 157.755 109.36 157.221 109.36C155.616 109.627 153.477 109.895 153.477 110.697C153.477 111.231 153.477 111.766 153.477 112.301L158.29 111.231L158.825 113.638L154.012 114.707C154.279 114.975 154.279 115.509 154.547 115.777L154.814 116.579C154.814 116.579 155.349 116.579 155.884 116.312C157.221 116.312 158.557 115.777 159.627 115.509L160.429 117.916C159.092 118.183 157.755 118.718 156.418 118.718C154.547 118.985 152.943 118.718 152.408 117.381L152.14 116.579C151.338 114.44 150.803 113.103 151.071 110.697C151.338 107.755 154.279 107.488 156.953 106.953C157.488 106.953 157.755 106.953 158.29 106.686L158.825 109.092ZM172.461 117.649C171.926 116.579 171.392 115.777 170.59 114.975C170.322 114.44 169.787 113.905 169.52 113.638C168.451 113.638 167.648 113.638 166.846 113.638H166.579V117.114H164.172V107.488V106.419H165.242C165.509 106.151 166.044 106.151 166.579 106.151C168.183 105.884 169.787 105.884 171.124 106.419C172.729 106.686 173.798 107.755 174.065 109.36C174.065 109.627 174.065 109.627 174.065 109.627C174.065 109.895 174.065 109.895 174.065 109.895C174.065 110.964 173.531 112.034 172.729 112.568C172.461 112.836 172.461 112.836 172.194 112.836C172.194 113.103 172.461 113.103 172.461 113.37C173.263 114.173 173.798 115.242 174.6 116.579L172.461 117.649ZM166.579 108.558V111.231H166.846C167.916 111.231 168.718 111.231 169.787 111.231C170.322 111.231 170.857 110.964 171.124 110.697C171.392 110.429 171.659 110.162 171.659 109.895C171.659 109.36 171.124 108.825 170.322 108.558C169.52 108.29 168.183 108.29 166.846 108.558H166.579ZM179.413 115.509C179.413 115.777 179.948 116.044 180.215 116.312C180.483 116.579 181.017 116.846 181.285 116.846C181.82 116.846 182.354 116.846 182.889 116.579C183.156 116.312 183.424 116.044 183.424 115.777C183.424 115.777 183.424 115.777 183.424 115.509C183.424 115.242 183.424 114.975 183.156 114.707C183.156 114.707 182.622 114.44 182.354 114.44H182.087C180.75 114.173 179.948 113.638 179.146 113.103C178.344 112.301 178.076 111.231 178.076 110.429V110.162C178.076 109.36 178.878 108.558 179.68 107.755C180.483 107.488 181.552 106.953 182.622 107.221C183.424 107.221 184.226 107.755 185.028 108.29C185.563 108.825 185.83 109.36 186.098 109.895L183.959 110.964C183.691 110.697 183.691 110.429 183.156 110.162C183.156 109.895 182.622 109.627 182.354 109.627C181.82 109.627 181.285 109.627 181.017 109.895C180.75 110.162 180.483 110.429 180.483 110.429C180.483 110.697 180.483 110.964 180.75 111.231C181.285 111.499 181.552 111.766 182.087 111.766H182.354V112.034C182.354 112.034 182.622 112.034 182.889 112.034C183.691 112.034 184.493 112.568 185.028 113.103C185.563 113.905 186.098 114.707 185.83 115.777C185.83 116.044 185.83 116.044 185.83 116.312C185.563 117.381 185.028 118.183 184.226 118.718C183.156 119.253 182.087 119.253 181.285 119.253C180.483 119.253 179.68 118.718 178.878 118.451C178.076 117.916 177.541 117.114 177.274 116.579L179.413 115.509ZM192.515 110.697L189.574 120.055L187.167 119.253L190.376 109.895L192.515 110.697ZM194.654 121.927L198.397 114.975L195.723 113.638L196.793 111.499L204.279 115.509L203.21 117.649L200.536 116.312L196.793 122.996L194.654 121.927ZM206.953 122.729C208.023 123.263 208.825 123.798 209.627 124.333C210.162 125.135 210.964 125.67 211.499 126.205C212.568 124.6 213.103 123.263 211.766 122.194C209.894 120.857 208.29 121.659 206.953 122.729ZM208.023 126.472C207.221 125.67 206.418 125.135 205.349 124.6C205.349 124.868 205.082 125.135 205.082 125.403C204.547 125.937 204.012 126.472 203.745 127.007L201.873 125.403C202.408 124.868 202.675 124.6 202.943 124.066C205.349 120.59 208.023 116.846 213.103 120.322C216.044 122.194 215.242 124.868 213.638 127.542C212.836 128.611 212.033 129.681 211.231 130.483C210.964 131.017 210.429 131.285 210.429 131.552L208.557 130.215C208.825 129.681 209.092 129.413 209.36 128.878C209.627 128.878 209.894 128.611 209.894 128.344C209.36 127.542 208.825 127.007 208.023 126.472Z" fill="#004A74"/>
<path d="M118.715 213.37L122.458 217.648L123.261 218.45L122.191 219.252C121.656 219.787 121.121 220.055 120.854 220.589C119.25 221.926 117.646 223.263 116.041 223.798C114.972 224.333 113.902 224.065 112.833 223.798C112.031 223.531 110.961 222.728 110.426 221.926C109.892 221.124 109.357 220.055 109.357 218.985C109.089 217.916 109.089 216.579 109.357 215.777L111.763 216.579C111.496 217.113 111.496 217.916 111.763 218.718C111.763 219.252 112.031 220.055 112.298 220.322C112.833 220.857 113.367 221.391 113.902 221.659C114.17 221.659 114.704 221.659 114.972 221.659C116.309 221.124 117.913 220.055 119.25 218.718C119.25 218.718 119.517 218.45 119.785 218.183L116.843 214.974L118.715 213.37Z" fill="#004A74"/>
<path d="M121.397 224.597C121.397 224.597 121.664 224.33 121.932 224.062C123.001 223.26 124.338 222.725 125.675 222.458C127.012 222.458 128.616 222.725 129.953 224.33C129.953 224.597 130.22 224.597 130.22 224.864C131.557 226.201 131.825 227.806 131.557 229.142C131.022 230.747 129.953 232.084 128.883 233.153C128.616 233.153 128.616 233.153 128.616 233.153C127.547 233.955 126.21 234.223 124.873 234.223C123.268 234.223 121.932 233.688 120.862 232.618V232.351C119.793 231.282 119.258 229.677 119.525 228.34C119.525 227.003 120.06 225.667 121.397 224.597ZM123.536 225.934C123.268 226.201 123.268 226.201 123.001 226.469C122.199 227.003 121.932 227.806 121.932 228.608C121.932 229.41 122.199 230.212 122.734 231.014C123.268 231.549 124.071 231.816 124.873 231.816C125.675 231.816 126.744 231.549 127.279 231.282C128.081 230.479 128.883 229.677 129.151 228.608C129.151 227.806 129.151 227.003 128.349 226.201C128.349 226.201 128.349 226.201 128.081 225.934C127.279 225.132 126.477 224.864 125.942 224.864C124.873 225.132 124.071 225.399 123.536 225.934Z" fill="#004A74"/>
<path d="M139.309 233.954C139.041 233.419 138.774 232.885 138.239 232.617C137.972 232.082 137.437 231.815 137.17 231.815C136.635 231.548 135.833 231.815 135.031 232.082C134.229 232.617 133.426 233.152 133.159 233.954C132.624 235.024 132.624 236.093 132.892 237.163C132.892 237.965 133.426 238.767 134.496 239.302C135.031 239.569 135.565 239.836 136.1 239.836C136.635 239.836 136.902 239.836 137.437 239.569C137.972 239.302 138.239 238.767 138.507 237.965C137.972 237.697 136.902 237.163 136.1 236.895C135.833 236.895 135.565 236.628 135.031 236.36L136.1 234.221C136.368 234.221 136.635 234.489 137.17 234.756C138.507 235.291 139.844 235.826 140.646 236.36L141.448 236.895L141.18 237.697C141.18 237.965 141.18 237.965 140.913 238.232C140.378 239.569 139.844 241.173 138.507 241.708C137.704 242.243 136.635 242.51 135.565 242.243C134.763 242.243 133.961 241.708 133.159 241.441C131.555 240.371 130.753 239.302 130.485 237.697C129.95 236.093 130.218 234.489 131.02 232.885C131.555 231.815 132.624 230.745 133.694 229.943C135.031 229.409 136.635 229.141 137.704 229.409C138.507 229.676 139.309 230.211 140.111 230.745C140.646 231.548 141.18 232.35 141.448 233.152L139.309 233.954Z" fill="#004A74"/>
<path d="M148.938 235.026C149.473 235.294 150.275 235.561 151.077 235.561C151.612 235.829 152.681 236.096 153.751 236.363L154.82 236.631L154.553 237.968C154.286 239.304 154.018 240.641 153.751 241.711C153.216 242.78 152.949 243.85 152.414 244.919C151.879 245.989 150.81 246.524 149.74 246.791C148.671 247.326 147.334 247.326 146.532 246.791C144.927 246.256 143.858 245.454 143.056 244.652C142.521 243.85 141.986 243.048 141.719 241.978L144.125 241.443C144.393 241.978 144.66 242.513 144.927 243.048C145.462 243.582 146.264 244.117 147.334 244.652C147.868 244.652 148.403 244.652 148.938 244.652C149.473 244.385 150.008 244.117 150.008 243.85C150.542 242.78 151.077 241.978 151.344 240.909C151.612 240.107 151.879 239.572 151.879 238.502C151.344 238.235 150.81 238.235 150.275 237.968C149.473 237.7 148.671 237.433 147.868 237.165L148.938 235.026Z" fill="#004A74"/>
<path d="M159.365 243.581C160.167 243.581 161.236 243.581 162.306 243.848C163.108 243.848 164.178 244.115 165.247 244.115C165.247 241.976 164.712 240.105 162.841 240.105C162.573 240.105 162.573 240.105 162.573 240.105C161.504 240.105 160.702 240.907 159.9 241.976C159.632 242.511 159.365 243.046 159.365 243.581ZM162.039 246.254C160.969 245.987 159.632 245.987 158.563 245.987C158.563 246.254 158.563 246.789 158.563 247.057C158.563 247.591 158.563 248.126 158.563 248.393H156.156C156.156 247.859 156.156 247.324 156.156 246.789C156.424 244.65 156.958 242.511 158.028 240.639C159.097 238.768 160.434 237.698 162.573 237.698H162.841C168.456 238.233 167.921 243.313 167.654 247.859C167.654 248.393 167.386 248.928 167.386 249.463L164.98 249.196C164.98 248.661 165.247 248.126 165.247 247.591C165.247 247.324 165.247 247.057 165.247 246.522C164.178 246.522 163.108 246.254 162.039 246.254Z" fill="#004A74"/>
<path d="M173.27 238.769L173.537 241.71L178.617 237.165L180.222 239.037L176.478 242.513L181.024 247.058L179.419 248.662L174.607 244.117L173.537 244.919L173.804 248.93H171.398L170.863 238.769H173.27Z" fill="#004A74"/>
<path d="M185.302 246.522C184.5 244.115 183.965 241.709 183.965 239.57C184.232 237.163 185.034 235.559 187.708 234.49C190.115 233.688 191.719 234.49 193.056 236.629C194.125 238.233 194.927 240.639 195.462 243.581L193.056 244.383C193.056 243.313 192.788 242.778 192.521 241.976L186.906 243.581C187.173 244.383 187.441 245.185 187.441 245.72L185.302 246.522ZM186.371 239.837C186.371 240.105 186.371 240.639 186.639 241.174L191.719 239.57C191.451 239.035 191.184 238.5 190.917 237.966C190.382 236.896 189.58 236.361 188.51 236.896C187.173 237.431 186.639 238.5 186.371 239.837Z" fill="#004A74"/>
<path d="M201.338 241.445L196.257 233.423L195.723 232.621L196.525 231.819C197.327 231.552 197.862 231.017 198.396 230.749C199.466 229.947 200.535 229.145 201.872 228.61C202.942 228.076 204.011 227.808 205.081 228.076C205.883 228.343 206.418 228.61 206.685 229.145C207.22 229.68 207.487 230.482 207.487 231.284C207.487 231.819 207.22 232.621 206.685 233.691C206.953 233.691 207.22 233.691 207.755 233.691C208.824 233.958 209.894 234.225 211.231 235.027L209.894 237.166C209.092 236.632 208.29 236.097 207.22 236.097C206.418 235.83 205.616 236.097 204.814 236.097C204.279 236.899 203.477 237.166 202.942 237.701C202.675 237.969 202.407 237.969 202.14 238.236L203.209 240.108L201.338 241.445ZM198.931 233.156L200.803 236.097C201.07 236.097 201.338 235.83 201.605 235.562C202.14 235.295 202.675 234.76 203.209 234.225C204.546 232.888 204.814 231.819 204.814 231.017C205.081 231.017 204.814 230.749 204.814 230.749L204.546 230.482C204.011 230.482 203.477 230.482 202.942 230.749C201.872 231.284 200.803 232.086 199.733 232.888C199.466 232.888 199.199 233.156 198.931 233.156Z" fill="#004A74"/>
<path d="M216.581 230.48C215.512 229.143 214.71 228.073 213.64 227.004C212.838 226.202 212.036 225.4 211.501 224.597L209.362 226.469L207.758 224.597L213.908 218.982L215.512 220.854L213.373 222.993C213.908 223.795 214.71 224.33 215.512 225.132C216.581 226.469 217.383 227.806 218.453 229.143L216.581 230.48Z" fill="#004A74"/>
<path d="M224.067 223.264C223.8 222.997 223.265 222.73 222.73 222.195C220.057 219.789 216.313 216.847 219.254 212.302C221.661 208.826 224.335 209.628 227.009 211.5C227.811 212.035 228.613 212.569 229.415 213.371C229.95 213.906 230.484 214.441 231.019 214.708L229.682 216.58C229.148 216.313 228.613 215.778 227.811 215.243L224.067 220.056L224.335 220.323C224.869 220.858 225.404 221.125 225.672 221.393L224.067 223.264ZM221.394 213.639C220.324 215.51 221.126 217.115 222.463 218.452L225.939 213.639C225.672 213.639 225.672 213.639 225.672 213.371C224.067 212.569 222.463 212.035 221.394 213.639Z" fill="#004A74"/>
<path d="M203.476 107.486C203.743 106.952 203.476 106.684 204.011 106.149C204.546 105.615 209.626 100.267 209.893 99.7324C212.299 97.0586 214.171 94.6522 216.043 91.9784C217.647 89.572 219.519 86.8982 221.658 83.1549C224.064 78.8768 226.471 74.8661 227.808 70.0533C228.877 65.5079 229.144 60.4277 227.005 54.2779C225.668 49.7325 222.995 46.5239 219.251 44.1175C215.508 41.4437 210.428 39.8395 204.546 38.77C197.059 37.1657 191.711 35.5614 187.166 33.9571C185.294 33.155 183.423 32.6202 181.818 32.0855C178.877 31.2833 176.203 29.6791 173.797 28.0748C171.925 26.4705 170.321 24.8662 168.717 22.9946C167.112 24.8662 165.508 26.4705 163.636 28.0748C161.23 29.6791 158.824 31.2833 155.882 32.0855C154.011 32.6202 152.139 33.155 150.535 33.9571C145.722 35.5614 140.374 37.1657 133.155 38.77C127.005 39.8395 122.193 41.4437 118.182 44.1175C114.439 46.5239 111.765 49.7325 110.428 54.2779C108.556 60.4277 108.556 65.5079 109.893 70.0533C110.963 74.8661 113.369 78.8768 115.775 83.1549C117.914 86.8982 119.786 89.572 121.658 91.9784C123.262 94.6522 125.401 97.0586 127.54 99.7324C128.61 100.802 129.679 102.139 130.749 103.208C131.283 103.743 130.481 104.545 131.016 105.08L131.283 105.347L130.214 107.486L129.947 106.952C128.075 105.347 126.471 103.743 124.866 102.139C122.46 99.1976 120.588 96.7912 118.717 94.1174C116.845 91.4436 114.973 88.5024 112.834 85.0265C110.16 80.4811 107.754 76.203 106.417 71.1228C105.08 66.0426 105.08 60.1603 107.219 53.2084C108.824 47.8608 111.765 44.1175 116.31 41.1764C120.588 38.2352 125.936 36.6309 132.353 35.294C139.572 33.9571 144.652 32.0855 149.198 30.4812C151.07 29.9464 152.941 29.4117 154.813 28.6096C157.219 28.0748 159.626 26.7379 161.497 25.1336C163.636 23.5294 165.775 21.3903 167.38 19.2513L168.717 17.1123L170.054 19.2513C171.925 21.3903 173.797 23.5294 175.936 25.1336C178.075 26.7379 180.214 28.0748 182.62 28.6096C184.492 29.4117 186.364 29.9464 188.235 30.4812C192.781 32.0855 197.861 33.9571 205.08 35.294C211.497 36.6309 216.845 38.2352 221.123 41.1764C225.668 44.1175 228.877 47.8608 230.481 53.2084C232.62 60.1603 232.353 66.0426 231.016 71.1228C229.679 76.203 227.273 80.4811 224.599 85.0265C222.46 88.5024 220.588 91.4436 218.717 94.1174C216.845 96.7912 214.973 99.1976 212.567 102.139C212.032 102.674 211.497 103.208 211.23 103.743C210.963 103.743 209.893 105.08 208.556 106.149C206.952 107.754 208.824 103.476 208.556 103.743L203.476 107.486ZM111.765 121.925C111.497 121.39 108.824 121.39 108.556 120.855C107.754 118.716 106.685 116.577 105.615 114.706C103.743 111.497 102.406 109.091 100.535 106.417C98.6631 104.01 96.7915 101.337 94.1177 98.1281C90.9091 94.3848 87.7006 90.6415 83.9572 87.9677C79.9465 85.2939 75.1337 83.4222 68.4492 83.1549C63.9038 82.8875 59.8931 84.4918 56.4171 87.1656C52.6738 89.8393 49.4653 94.1174 46.2567 99.1976C42.5134 105.882 39.0374 110.16 35.8289 113.903C34.7594 115.508 33.6898 116.845 32.3529 118.449C30.7487 120.855 28.3423 122.727 25.9358 124.331C24.0642 125.668 21.9251 126.738 19.5187 127.54C20.8556 129.679 21.6578 131.818 22.4599 134.224C23.262 136.898 23.7968 139.839 23.7968 142.78C23.5294 144.652 23.5294 146.524 23.5294 148.395C23.5294 153.476 23.5294 159.09 22.1925 166.577C21.3904 172.459 21.123 177.807 22.1925 182.352C23.262 186.631 25.4011 190.374 29.1444 193.048C34.492 197.058 39.3048 198.663 44.1177 198.93C48.6631 199.465 53.4759 198.663 58.2888 197.593C62.2995 197.058 65.508 196.256 68.7166 195.454C71.6578 194.385 74.5989 193.582 77.8075 192.245C79.9465 191.443 82.353 190.374 84.492 189.304C86.3637 188.502 89.0375 187.433 90.6417 186.898L91.1765 188.502L87.1658 190.641C86.0963 191.176 89.3048 191.176 87.7006 191.711C87.1658 191.978 86.631 192.245 86.0963 192.513C83.6899 193.582 81.2834 194.652 79.1444 195.454C75.6685 196.791 72.7273 197.86 69.5187 198.663C66.5776 199.465 63.1016 200.267 58.8235 201.069C53.7433 202.139 48.9305 202.941 43.8503 202.406C38.5027 202.139 33.1551 200.267 27.0054 195.721C22.7273 192.513 20.0535 188.235 18.984 183.155C17.6471 178.074 17.9144 172.459 18.7166 166.042C20.0535 158.823 20.0535 153.476 20.0535 148.395C20.0535 146.524 20.0535 144.652 20.3209 142.78C20.3209 140.107 20.0535 137.7 19.2513 135.294C18.4492 132.62 17.1123 129.946 15.508 127.54L14.1711 125.668L16.3102 124.866C19.2513 124.064 21.6578 122.994 24.0642 121.657C26.2032 120.053 28.0749 118.449 29.6791 116.31C30.7487 114.973 32.0856 113.369 33.1551 111.764C36.3636 108.021 39.5722 103.743 43.3155 97.5933C46.7915 91.9784 50.2674 87.4329 54.2781 84.2244C58.5562 81.2832 63.369 79.4116 68.7166 79.6789C76.2032 80.2137 81.5508 82.0854 85.8289 85.0265C90.107 88.2351 93.3155 91.9784 96.7915 95.9891C99.4653 99.1976 101.604 101.871 103.209 104.545C105.08 107.219 106.685 109.893 108.556 113.101C109.893 114.973 110.695 117.112 111.765 119.518C112.032 120.053 112.299 120.588 112.567 121.123L111.765 121.925ZM121.39 114.171H121.123L118.717 112.834L108.289 98.3955C103.743 92.2458 99.4653 86.3634 95.1872 79.9463L94.6524 79.4116C91.7113 75.9356 87.1658 73.2618 82.353 71.3902C77.0054 69.5185 70.8556 68.7164 64.9733 68.9838C59.3583 69.2512 53.7433 71.1228 48.9305 74.064C43.3155 77.5399 38.7701 82.3527 35.5615 87.4329C32.6203 91.711 30.4813 95.4543 28.6096 98.6628C26.2032 102.941 23.7968 106.684 20.3209 111.497C17.6471 114.706 16.3102 117.647 13.369 119.518C10.9626 120.855 8.55615 121.925 6.14973 122.727C7.48663 124.866 8.82353 127.005 9.62567 129.679C10.6952 132.887 9.89305 136.363 9.89305 140.641C9.62567 146.524 8.82353 150.802 8.02139 155.882C7.48663 159.358 6.95187 163.369 6.41711 168.716C5.61497 174.598 6.14973 181.283 8.28877 187.7C10.1604 193.048 13.1016 197.86 17.3797 201.871C21.6578 205.882 27.0054 209.09 32.3529 211.229C37.1658 213.101 42.246 213.636 46.7915 213.101C47.5936 212.834 48.3957 212.566 49.1979 212.299C56.4171 209.625 63.369 207.753 70.5882 205.882C77.0054 203.743 83.6899 201.871 89.8396 199.999C90.9091 199.732 91.7113 200.802 92.7808 200.534H93.8503L94.1177 202.139C93.3155 202.406 92.7808 202.941 91.7113 203.208C85.0268 205.347 78.6096 207.219 72.1925 209.09H71.3904L71.123 209.358C63.9038 211.497 56.9519 213.636 50.2674 215.507C46.2567 217.646 42.7808 221.39 39.8396 225.935C36.3636 231.818 33.6898 238.502 32.3529 244.384C31.2834 250.267 31.8182 255.882 33.4225 261.229C35.2941 267.646 38.7701 273.529 42.7808 277.807C46.2567 281.817 49.1979 284.759 51.8717 287.432C55.3476 290.908 58.2888 294.117 62.0321 298.662C64.7059 302.138 66.3102 305.347 67.3797 308.823C68.1818 311.497 68.4492 313.903 68.4492 316.577C71.123 315.775 73.5294 315.24 76.2032 314.972C79.6792 314.705 83.4225 314.972 87.4332 316.309C93.3155 317.914 97.3262 319.785 101.872 321.924C105.08 323.261 108.824 324.865 113.904 327.004C119.519 329.144 126.203 330.213 132.62 329.678C138.235 329.411 143.85 327.807 148.663 324.598C153.743 321.39 158.289 317.379 161.765 312.566C164.706 308.288 166.578 303.743 167.112 298.93C166.845 291.176 166.845 283.689 167.112 276.202C167.112 270.588 166.845 264.705 166.845 259.09C167.112 257.219 168.449 256.684 168.449 254.812L169.251 255.882C169.251 258.021 170.588 257.486 170.588 259.625C170.588 265.24 170.588 270.588 170.588 276.202C170.588 283.689 170.588 291.176 170.588 298.93C170.856 303.743 172.995 308.288 175.936 312.566C179.144 317.379 183.957 321.39 188.77 324.598C193.583 327.807 199.198 329.411 204.813 329.678C211.497 330.213 217.914 329.144 223.529 327.004C228.61 324.865 232.353 323.261 235.562 321.924C240.374 319.785 244.385 317.914 250 316.309C254.011 314.972 257.754 314.705 261.23 314.972C263.904 315.24 266.578 315.775 268.984 316.577C268.984 313.903 269.519 311.497 270.054 308.823C271.123 305.347 272.995 302.138 275.401 298.662C279.144 294.117 282.086 290.908 285.829 287.432C288.235 284.759 291.177 281.817 294.92 277.807C298.663 273.529 302.139 267.646 304.011 261.229C305.882 255.882 306.417 250.267 305.08 244.384C303.743 238.502 301.337 231.818 297.594 225.935C294.92 221.39 291.444 217.646 287.433 215.507C280.749 213.636 274.064 211.764 267.647 209.625L267.112 209.358H266.578C259.626 207.486 250.802 204.812 243.316 202.139L243.85 201.069C246.257 201.604 247.861 199.999 248.128 199.999C254.813 201.871 262.032 204.278 267.914 206.149C274.599 208.021 281.283 209.625 288.503 212.299C289.305 212.566 289.84 212.834 290.642 213.101C295.455 213.636 300.267 213.101 305.08 211.229C310.428 209.09 315.775 205.882 320.054 201.871C324.599 197.86 327.54 193.048 329.144 187.7C331.283 181.283 331.818 174.598 331.283 168.716C330.749 163.369 329.947 159.358 329.412 155.882C328.61 150.802 328.075 146.524 327.808 140.641C327.54 136.363 326.738 133.155 327.808 129.679C328.61 127.272 329.947 124.866 331.283 122.727C328.877 121.925 326.471 121.123 324.064 119.786C321.123 117.914 319.786 114.706 317.38 111.497C313.636 106.684 311.497 102.941 308.824 98.6628C306.952 95.4543 305.08 91.711 302.139 87.4329C298.663 82.3527 294.118 77.5399 288.503 74.064C283.69 71.1228 278.342 69.2512 272.46 68.9838C266.578 68.7164 260.428 69.2512 254.813 71.3902C250.535 72.7271 246.524 75.1335 243.583 78.0747C243.316 78.6094 243.048 78.8768 242.781 79.4116L218.984 112.567L216.31 114.973L213.904 116.845L214.439 114.973C215.508 113.636 214.439 112.834 215.508 111.497C218.984 106.417 222.727 101.337 226.203 96.5238C230.749 89.8393 235.562 83.4222 239.84 77.0051L240.107 76.7378C240.107 76.7378 240.374 76.4704 240.642 76.203C242.246 72.4597 243.048 67.9143 243.048 63.3688C243.048 57.4865 241.711 51.6041 239.305 45.9892C237.166 40.6416 233.423 36.0962 229.144 32.6202C223.797 28.6096 217.647 25.9358 212.032 24.3315C206.685 23.262 202.674 22.4598 199.198 21.6577C194.118 20.8556 189.84 20.0534 184.225 18.1818C180.214 16.8449 177.005 14.4385 174.064 12.2994C172.193 10.4278 170.321 8.55613 168.717 6.4171C167.112 8.55613 165.508 10.4278 163.369 12.2994C160.695 14.4385 157.219 16.8449 153.209 18.1818C147.594 20.0534 143.316 20.8556 138.235 21.6577C134.759 22.4598 130.749 23.262 125.401 24.3315C119.786 25.9358 113.636 28.6096 108.556 32.6202C104.011 36.0962 100.267 40.6416 98.1284 45.9892C95.9893 51.6041 94.385 57.4865 94.385 63.3688C94.385 68.449 95.4546 73.2618 97.5936 77.5399L97.861 78.0747L110.695 95.7217L111.23 96.5238C114.706 101.337 118.182 105.882 121.39 110.695C121.658 110.695 122.46 114.438 122.727 115.24L121.39 114.171ZM42.7808 216.844C39.0374 216.577 35.0267 215.775 31.2834 214.438C25.4011 212.299 19.7861 208.556 14.9733 204.545C10.1604 199.999 6.95187 194.652 5.08021 188.77C2.6738 182.085 2.13904 174.866 2.94118 168.449C3.47594 163.101 4.0107 158.823 4.81284 155.347C5.61497 150.267 6.14973 146.256 6.41711 140.374C6.41711 136.631 7.48663 133.689 6.41711 130.748C5.34759 127.807 3.74332 125.133 1.60428 122.727L0 120.321L2.6738 119.786C5.88235 119.251 8.82353 118.182 11.4973 116.577C14.1711 114.973 15.2406 112.299 17.3797 109.358C21.123 104.813 22.9947 101.069 25.6685 96.7912C27.5401 93.5826 29.4118 90.1067 32.6203 85.5613C36.0963 80.2137 41.1765 74.8661 47.3262 71.1228C52.4064 67.9143 58.5562 65.7752 64.9733 65.5079C71.123 65.2405 77.8075 66.0426 83.4225 68.1816C86.631 69.2512 89.3048 70.5881 91.9786 72.4597C91.1765 69.5185 90.9091 66.5774 90.9091 63.3688C91.1765 57.2191 92.5134 50.5346 94.9198 44.6523C97.3262 38.77 101.604 33.9571 106.417 29.9464C112.032 25.6684 118.449 22.7272 124.599 21.1229C129.947 19.786 134.225 18.9839 137.701 18.4492C142.513 17.3796 146.791 16.5775 152.139 14.9732C155.882 13.6363 158.824 11.4973 161.23 9.35826C163.636 7.48661 165.508 5.0802 167.38 2.40641L168.717 0L170.321 2.40641C171.925 5.0802 173.797 7.48661 176.203 9.35826C178.61 11.4973 181.551 13.6363 185.294 14.9732C190.909 16.5775 194.92 17.3796 199.733 18.4492C203.476 18.9839 207.487 19.786 212.834 21.1229C218.984 22.7272 225.668 25.6684 231.283 29.9464C236.096 33.9571 240.107 38.77 242.513 44.6523C244.92 50.5346 246.524 57.2191 246.524 63.3688C246.524 66.31 246.257 69.2512 245.722 71.9249C248.128 70.3207 250.802 68.9838 253.743 67.9143C259.626 66.0426 266.31 65.2405 272.727 65.5079C279.144 65.7752 285.027 67.9143 290.374 71.1228C296.257 74.8661 301.337 80.2137 304.813 85.5613C308.021 90.1067 310.16 93.5826 311.765 96.7912C314.439 101.069 316.578 104.813 320.054 109.358C322.46 112.299 323.262 114.973 325.936 116.577C328.61 118.449 331.551 119.251 334.759 120.053L337.701 120.588L335.829 122.727C333.69 125.401 332.086 127.807 331.016 131.016C329.947 133.957 331.016 136.631 331.283 140.374C331.283 146.256 332.086 150.267 332.888 155.347C333.423 158.823 333.957 163.101 334.759 168.449C335.294 174.866 334.759 182.085 332.353 188.77C330.481 194.652 327.273 199.999 322.46 204.545C317.914 208.556 312.032 212.299 306.15 214.438C302.406 215.775 298.663 216.577 294.652 216.844C296.792 218.716 298.931 221.39 300.535 224.064C304.278 230.213 306.952 237.433 308.556 243.85C309.893 249.999 309.358 256.416 307.487 262.299C305.348 269.251 301.604 275.4 297.326 280.213C293.583 284.224 290.642 287.165 288.235 289.839C284.759 293.315 281.818 296.256 278.075 300.801C275.936 304.01 274.332 306.951 273.529 309.892C272.46 312.833 272.193 315.775 272.46 319.251L272.727 321.924L270.054 320.855C267.112 319.518 264.171 318.716 260.963 318.448C258.021 318.181 254.546 318.448 251.07 319.518C245.455 321.39 241.711 322.994 237.166 325.133C233.69 326.47 229.947 328.341 224.866 330.213C218.717 332.352 211.765 333.689 204.546 333.154C198.396 332.887 192.246 331.015 186.898 327.539C181.551 324.063 176.738 319.518 172.995 314.438C171.39 312.031 169.786 309.357 168.717 306.416C167.647 309.357 166.31 312.031 164.439 314.438C160.963 319.518 155.882 324.063 150.535 327.539C145.187 331.015 139.037 332.887 132.888 333.154C125.936 333.689 118.717 332.352 112.834 330.213C107.754 328.341 103.743 326.47 100.535 325.133C95.9893 322.994 92.246 321.39 86.631 319.518C82.8877 318.448 79.6792 318.181 76.4706 318.448C73.262 318.716 70.3209 319.518 67.3797 320.855L64.7059 321.924L64.9733 319.251C65.2407 315.775 64.9733 312.833 64.1711 309.892C63.1016 306.951 61.7647 304.01 59.3583 300.801C55.8824 296.256 52.9412 293.315 49.4653 289.839C46.7915 287.165 43.8503 284.224 40.107 280.213C35.8289 275.4 32.0856 269.251 30.2139 262.299C28.3423 256.416 27.8075 249.999 29.1444 243.85C30.4813 237.433 33.1551 230.213 36.8984 224.064C38.7701 221.39 40.6417 218.716 42.7808 216.844ZM156.417 260.16C156.685 261.229 157.754 257.753 157.754 258.823C158.021 260.427 158.289 263.101 158.556 263.368C158.824 267.112 159.091 270.32 159.091 273.529C159.091 276.737 159.091 279.946 158.556 284.224C158.289 289.571 157.754 294.384 156.15 299.464C154.278 304.277 151.07 309.09 145.455 313.636C141.176 317.111 136.364 318.448 131.016 318.448C125.936 318.181 120.321 316.577 114.439 314.17C107.754 311.229 102.674 309.625 97.861 308.288C95.9893 307.753 94.1177 307.218 92.246 306.684C89.8396 305.882 87.1658 305.614 84.7594 305.882C82.0856 305.882 79.1444 306.684 76.4706 307.486L74.3316 308.288L74.0642 305.882C74.0642 303.208 73.7968 300.267 72.7273 297.593C71.9251 295.186 70.8556 293.047 69.2514 290.908C68.1818 289.304 67.1123 287.967 65.7754 286.363C62.8342 282.352 59.6257 278.074 54.5455 272.727C50 268.181 46.5241 263.636 44.6524 258.823C42.5134 254.01 42.246 248.93 43.8503 243.85C45.9893 236.63 49.4653 232.085 53.4759 228.609C57.4866 225.133 62.0321 222.994 66.5776 220.855C70.5882 218.983 73.5294 217.646 76.738 216.577C79.6792 215.507 82.6203 214.705 86.3637 213.636C88.5027 213.101 93.3155 212.299 95.7219 212.032L93.8503 214.705L97.0588 215.24H96.2567C93.8503 215.775 89.3048 216.31 87.1658 216.844C83.6899 217.914 80.7487 218.716 77.8075 219.786C74.8663 220.855 71.9251 222.192 68.1818 224.064C63.6364 226.203 59.3583 228.074 55.615 231.283C52.139 234.224 49.1979 238.502 47.0588 244.919C45.7219 249.197 46.2567 253.475 47.861 257.486C49.4653 261.764 52.6738 266.042 56.9519 270.32C62.2995 275.668 65.508 280.213 68.4492 284.224C69.7861 285.828 70.8556 287.432 71.9251 288.769C73.7968 291.176 75.1337 293.85 76.2032 296.523C76.738 298.93 77.2727 301.069 77.5401 303.475C79.9465 302.94 82.353 302.406 84.492 302.406C87.4332 302.138 90.3744 302.673 93.3155 303.475C95.1872 304.01 97.0588 304.545 98.6631 305.079C103.476 306.416 108.824 307.753 115.775 310.962C121.39 313.368 126.471 314.972 131.016 314.972C135.562 314.972 139.572 313.903 143.316 310.962C148.396 306.951 151.337 302.673 152.941 298.128C154.545 293.85 154.813 289.037 155.348 283.956C155.615 279.946 155.615 276.47 155.615 273.529C155.615 270.32 155.348 267.379 155.08 263.636C155.08 263.368 154.278 258.555 154.278 258.021C154.278 257.486 154.011 257.219 154.011 256.684L155.615 256.416L156.417 260.16ZM182.62 257.753C182.353 258.555 183.69 258.288 183.423 259.09C182.62 263.101 182.353 266.577 182.086 270.053C181.818 274.598 181.818 278.876 182.353 283.956C182.62 289.037 183.155 293.85 184.759 298.128C186.364 302.673 189.037 306.951 194.385 310.962C197.861 313.903 201.872 314.972 206.417 314.972C210.963 314.972 216.043 313.368 221.658 310.962C228.61 307.753 233.957 306.416 238.77 305.079C240.642 304.545 242.246 304.01 244.118 303.475C247.059 302.673 250 302.138 252.941 302.406C255.348 302.406 257.754 302.94 259.893 303.475C260.16 301.069 260.695 298.93 261.497 296.523C262.3 293.85 263.636 291.176 265.508 288.769C266.578 287.432 267.914 285.828 268.984 284.224C271.925 280.213 275.134 275.668 280.481 270.32C284.759 266.042 287.968 261.764 289.572 257.486C291.444 253.475 291.711 249.197 290.374 244.919C288.235 238.502 285.294 234.224 281.818 231.283C278.075 228.074 273.797 226.203 269.519 224.064C265.508 222.192 262.567 220.855 259.626 219.786C256.685 218.716 254.011 217.914 250.267 216.844C248.396 216.31 240.909 215.24 238.503 214.705H237.968C237.968 214.171 242.513 214.973 243.048 213.636C243.048 213.368 242.246 212.299 242.246 212.032C245.455 212.566 249.733 213.101 251.337 213.636C254.813 214.705 257.754 215.507 260.963 216.577C263.904 217.646 267.112 218.983 270.856 220.855C275.668 222.994 280.214 225.133 283.957 228.609C287.968 232.085 291.444 236.63 293.583 243.85C295.187 248.93 294.92 254.01 292.781 258.823C290.909 263.636 287.433 268.181 282.888 272.727C277.808 278.074 274.599 282.352 271.658 286.363C270.588 287.967 269.519 289.304 268.182 290.908C266.578 293.047 265.508 295.186 264.706 297.593C263.904 300.267 263.369 303.208 263.369 305.882V308.288L260.963 307.486C258.289 306.684 255.615 305.882 252.674 305.882C250.267 305.614 247.594 305.882 245.187 306.684C243.583 307.218 241.711 307.753 239.572 308.288C235.027 309.625 229.679 311.229 223.262 314.17C217.112 316.577 211.497 318.181 206.417 318.448C201.337 318.448 196.524 317.111 192.246 313.636C186.364 309.09 183.155 304.277 181.551 299.464C179.679 294.384 179.144 289.571 178.877 284.224C178.342 279.144 178.342 274.598 178.61 270.053C178.877 267.112 179.144 263.903 179.679 260.962C179.947 259.358 181.551 258.288 181.818 256.416L182.62 257.753ZM225.668 121.39C225.936 120.588 226.203 119.786 226.471 119.251C226.738 118.716 226.203 118.449 226.471 117.914C227.273 116.31 228.075 114.438 228.877 113.101C230.749 109.893 232.353 107.219 234.225 104.545C236.096 101.871 237.968 99.1976 240.909 95.9891C244.118 91.9784 247.326 88.2351 251.604 85.0265C256.15 82.0854 261.497 80.2137 268.717 79.6789C274.332 79.4116 278.877 81.2832 283.155 84.2244C287.166 87.4329 290.909 91.9784 294.118 97.5933C297.861 103.743 301.337 108.021 304.278 111.764C305.615 113.369 306.685 114.973 308.021 116.31C309.358 118.449 311.23 120.053 313.369 121.657C315.775 122.994 318.449 124.064 321.123 124.866L323.529 125.668L322.193 127.54C320.588 129.946 319.251 132.62 318.449 135.294C317.647 137.7 317.112 140.107 317.38 142.78C317.38 144.652 317.38 146.524 317.38 148.395C317.38 153.476 317.647 158.823 318.717 166.042C319.786 172.459 319.786 178.074 318.717 183.155C317.38 188.235 314.706 192.513 310.428 195.721C304.546 200.267 299.198 202.139 293.85 202.406C288.503 202.941 283.69 202.139 278.61 201.069C274.332 200.267 271.123 199.465 267.914 198.663C264.973 197.86 262.032 196.791 258.556 195.454C256.417 194.652 254.278 193.582 252.139 192.513C251.604 192.245 250.802 192.245 250.267 191.711C250 191.176 248.931 189.572 247.861 189.037L249.733 188.235C251.07 188.77 250.802 187.967 252.139 188.77C252.674 189.037 253.209 189.304 253.743 189.572C255.615 190.641 257.754 191.711 259.626 192.245C263.102 193.582 265.775 194.385 268.984 195.454C271.925 196.256 275.134 197.058 279.144 197.593C283.957 198.663 288.77 199.465 293.583 198.93C298.128 198.663 302.941 197.058 308.289 193.048C312.032 190.374 314.171 186.631 315.241 182.352C316.31 177.807 316.31 172.459 315.241 166.577C314.171 159.09 314.171 153.476 313.904 148.395C313.904 146.524 313.904 144.652 313.904 142.78C313.636 139.839 314.171 136.898 314.973 134.224C315.775 131.818 316.845 129.679 317.914 127.54C315.775 126.738 313.636 125.668 311.497 124.331C309.091 122.727 306.952 120.855 305.08 118.449C304.011 116.845 302.941 115.508 301.604 113.903C298.396 110.16 294.92 105.882 291.177 99.1976C288.235 94.1174 284.759 89.8393 281.016 87.1656C277.54 84.4918 273.529 82.8875 268.984 83.1549C262.3 83.4222 257.487 85.2939 253.743 87.9677C249.733 90.6415 246.791 94.3848 243.583 98.1281C240.909 101.337 238.77 104.01 237.166 106.417C235.294 109.091 233.69 111.497 231.818 114.706C230.749 116.577 229.947 118.716 228.877 120.855C228.61 121.657 226.203 121.925 225.936 122.46L225.668 121.39Z" fill="#004A74"/>
<path d="M263.634 65.7754C266.04 56.6845 267.11 50 266.308 41.1765C259.088 43.3155 252.404 46.5241 244.917 51.6043L243.848 48.1284C251.334 43.3155 258.821 39.5722 267.377 37.4332L269.249 36.8984L269.516 38.7701C270.586 47.5936 270.051 56.4171 267.11 65.508L263.634 65.7754Z" fill="#004A74"/>
<path d="M304.262 233.956C313.62 233.421 320.305 232.619 328.326 228.875C324.315 222.726 319.235 217.378 312.016 211.763L314.957 209.624C321.909 215.239 327.791 221.389 332.337 228.875L333.406 230.48L331.534 231.282C323.513 235.025 315.224 237.164 305.599 237.164L304.262 233.956Z" fill="#004A74"/>
<path d="M156.951 322.995C160.16 331.551 162.833 337.968 168.716 344.653C173.261 339.038 177.807 331.284 180.748 322.728L183.422 325.134C181.55 331.551 175.935 341.979 169.785 348.663L168.716 350L167.379 348.396C161.497 341.979 156.951 334.225 154.277 325.134L156.951 322.995Z" fill="#004A74"/>
<path d="M27.0005 211.763C19.2465 217.111 14.1663 221.656 9.08607 228.875C16.0379 231.816 23.2572 233.688 32.3481 234.49L30.7438 237.966C21.9203 236.897 13.8989 235.025 5.87752 231.014L4.00586 230.212L5.07538 228.608C9.88821 221.121 16.0379 214.704 24.0593 209.624L27.0005 211.763Z" fill="#004A74"/>
<path d="M92.5115 53.7425C85.2922 47.8602 79.4099 44.1169 71.1211 41.7105C70.0516 48.9297 70.5864 56.6837 72.458 65.7746L68.9821 65.5072C67.1104 56.6837 66.5757 47.8602 67.9126 39.0367L68.4473 37.165L70.0516 37.6998C78.6077 40.1062 86.6291 44.1169 93.581 50.2666L92.5115 53.7425Z" fill="#004A74"/>
<path fill-rule="evenodd" clip-rule="evenodd" d="M168.718 152.407C182.622 152.407 194.119 163.637 194.119 177.54C194.119 191.711 182.622 202.941 168.718 202.941C154.814 202.941 143.317 191.711 143.317 177.54C143.317 163.637 154.814 152.407 168.718 152.407ZM168.718 150.268C183.959 150.268 196.258 162.567 196.258 177.54C196.258 192.781 183.959 205.08 168.718 205.08C153.745 205.08 141.445 192.781 141.445 177.54C141.445 162.567 153.745 150.268 168.718 150.268Z" fill="#004A74"/>
<path d="M120.587 237.702C118.181 240.109 115.507 242.515 113.101 244.654C107.218 250.002 101.603 255.349 97.3253 261.766C93.8493 266.579 92.245 272.461 90.6408 278.344C89.8386 280.483 89.3039 282.622 88.7691 284.761C90.3734 283.424 92.245 282.354 94.1167 281.285C99.4643 278.076 104.545 275.135 108.555 270.59C113.903 264.975 117.646 258.023 121.657 251.339C123.261 248.397 125.133 245.189 127.004 242.248C124.598 240.911 122.459 239.306 120.587 237.702ZM119.518 258.825C118.448 260.964 117.379 263.103 116.844 265.242C116.309 266.579 116.042 268.183 115.774 269.788C119.518 267.381 122.192 264.173 124.865 260.162C127.807 255.884 130.213 250.804 132.887 245.724C131.282 244.921 129.946 244.119 128.609 243.317C126.737 246.258 124.865 249.199 123.261 252.141C121.924 254.28 120.855 256.686 119.518 258.558V258.825ZM134.491 246.526C133.689 248.397 132.887 250.002 132.085 251.606C131.015 253.745 130.48 255.884 130.213 258.29C129.678 260.162 129.678 262.034 129.411 263.905C131.282 262.034 132.619 259.895 133.689 257.488C135.026 254.547 136.363 250.804 136.897 247.863C136.095 247.328 135.293 247.06 134.491 246.526ZM128.074 258.558C127.539 259.36 127.004 260.162 126.47 261.232C123.261 265.777 119.785 269.788 115.24 272.461L113.903 273.264V271.659C113.903 269.788 114.17 267.916 114.705 266.044C113.101 268.183 111.764 270.055 109.892 271.927C105.881 276.472 100.534 279.681 95.1862 282.889C91.1755 285.028 87.967 287.435 84.2237 290.108C86.3627 285.83 87.4322 282.354 88.7691 277.809C90.6408 271.927 92.245 265.777 95.721 260.697C97.0579 258.825 98.3948 256.953 99.9991 255.349C98.3948 255.884 96.7905 256.419 95.1862 256.953L93.5819 257.488L94.1167 255.884C95.1862 251.873 97.3253 248.397 100.266 244.921C99.9991 244.921 99.9991 244.921 99.9991 244.921C98.3948 245.456 97.0579 245.456 95.721 245.724L93.5819 245.991L94.9188 244.387C96.2557 242.248 97.86 240.376 99.4643 238.504C98.6622 238.772 97.5926 238.772 96.7905 239.039H94.6515L95.9884 237.435C97.3253 235.296 99.1969 233.157 101.069 231.018C99.7317 231.285 98.3948 231.82 97.0579 232.087L95.1862 232.355L95.9884 230.75C97.0579 228.879 98.3948 227.274 99.7317 225.67C98.3948 226.205 97.0579 226.472 95.721 226.472H94.1167L94.9188 225.135C95.721 223.531 96.7905 222.194 97.86 220.857C97.0579 221.125 95.9884 221.125 95.1862 221.125H93.8493L94.3841 219.788C95.1862 218.184 96.2557 216.847 97.5926 215.777C96.2557 216.045 94.9188 216.045 93.5819 215.777H92.245L92.7798 214.708C93.3146 213.103 94.3841 212.034 95.4536 210.964C95.4536 210.697 95.4536 210.697 95.4536 210.697C94.6515 210.697 93.5819 210.697 92.245 210.697L91.1755 210.43L91.7103 209.36C92.245 208.291 93.0472 207.221 93.8493 206.419C92.7798 206.151 91.7103 205.884 90.6408 205.349L89.8386 205.082L90.3734 204.012C90.9081 203.21 91.7103 202.408 92.5124 201.606C91.4429 201.339 90.3734 201.071 89.0365 200.537L87.967 200.002L88.7691 198.932C89.3039 198.397 90.106 197.863 90.6408 197.328C89.5713 197.061 88.5017 196.793 87.4322 196.258L86.3627 195.724L87.1648 194.922C87.967 194.119 88.7691 193.317 89.8386 192.783C88.5017 192.783 87.4322 192.515 86.3627 192.248L84.7584 191.713L86.0953 190.644C87.1648 189.574 88.2344 188.772 89.5713 188.237V187.97C89.5713 187.97 89.3039 187.97 89.0365 187.97C87.6996 187.702 86.0953 187.435 84.491 186.9L82.6194 186.365L84.2237 185.296C85.5606 184.494 86.6301 183.692 87.967 183.157C87.967 183.157 87.6996 183.157 87.4322 183.157C85.5606 182.89 83.6889 182.355 81.8172 181.553L79.9456 180.75L81.8172 179.681C83.1541 179.146 84.491 178.611 85.8279 178.077C83.6889 177.809 81.2825 177.007 78.8761 176.205L77.2718 175.403L78.6087 174.601C79.4108 174.066 80.213 173.531 81.2825 172.996C79.1434 172.729 77.0044 171.927 75.1327 170.857L72.9937 170.055L75.1327 169.253C76.4696 168.718 77.8065 168.451 79.4108 168.184C76.737 167.649 74.0632 166.847 71.1221 165.51L69.5178 164.975L71.1221 163.906C71.6568 163.638 72.7263 163.103 73.5285 162.836C69.5178 161.499 65.5071 159.628 62.2985 157.221L60.9616 156.152L62.5659 155.617C64.4376 155.082 66.3092 154.547 67.9135 154.28C65.7745 153.745 63.368 152.943 60.9616 151.874C55.3466 149.735 50.2664 145.724 45.4536 141.981C42.245 139.307 39.0365 136.9 35.5605 134.494C39.8386 134.761 43.5819 134.494 47.86 134.227C54.0097 133.692 60.4269 133.157 66.3092 134.761C68.7156 135.296 70.8547 135.831 72.9937 136.633C71.9242 135.563 70.8547 134.227 69.7852 132.89L68.7156 131.553H70.3199C75.4001 131.018 80.213 132.088 85.0258 133.959C84.2237 132.622 83.4215 131.553 82.8868 130.216L81.8172 128.612L83.6889 129.146C86.8975 129.681 89.5713 130.751 92.5124 131.82L92.245 131.553C91.1755 130.483 90.6408 128.879 90.106 127.542L89.3039 125.67L91.1755 126.473C94.1167 127.542 97.0579 128.879 99.9991 130.483C98.6622 128.879 97.5926 127.007 96.7905 125.136L95.9884 123.264L97.86 123.799C99.7317 124.334 101.336 125.136 103.208 126.205C102.405 125.136 101.871 124.066 101.336 122.997L100.801 121.392L102.405 121.66C104.277 122.194 105.881 122.729 107.486 123.531C106.951 122.729 106.684 121.66 106.149 120.323L105.881 118.719L107.218 119.253C108.555 119.521 109.625 120.055 110.962 120.59C110.427 119.788 110.159 118.986 109.892 117.916L109.625 116.58L110.962 116.847C112.299 117.114 113.368 117.649 114.438 118.184C113.903 117.382 113.635 116.312 113.368 115.243L112.833 113.638L114.438 114.173C116.042 114.441 117.111 115.243 118.181 116.045C117.914 114.708 117.914 113.371 117.646 112.034V110.162L119.25 111.232C119.785 111.767 120.32 112.034 120.855 112.569C120.32 111.499 120.32 110.43 120.587 109.36L120.855 108.291L121.924 108.558C122.726 108.826 123.528 109.36 124.063 109.895C124.063 109.093 124.063 108.558 123.796 107.756V106.687L125.133 106.954C125.935 107.221 127.004 107.756 127.539 108.558C127.539 107.489 127.272 106.419 127.272 105.35V103.745L128.609 104.547C129.411 104.815 129.946 105.082 130.48 105.617C130.213 104.547 130.213 103.478 130.213 102.141L130.48 100.804L131.817 101.606C132.619 102.141 133.689 102.943 134.491 103.745C134.224 102.141 133.956 100.804 133.956 99.4673V97.5956L135.293 98.6651C136.363 99.4673 137.432 100.269 138.234 101.072C137.7 99.4673 137.432 97.5956 137.7 95.4566V94.1197L139.036 94.9218C140.641 95.724 141.978 97.0609 143.047 98.3978C142.512 95.4566 142.512 92.5154 142.512 89.8416L142.78 87.97L144.117 89.0395C145.454 90.109 146.523 91.1785 147.593 92.5154C147.325 91.1785 147.325 89.8416 147.593 88.5047C147.593 86.0983 148.127 83.4245 148.662 81.0181L149.197 79.6812L150.266 80.4834C151.603 81.8203 152.673 83.4245 153.475 85.0288C153.208 79.6812 153.475 74.601 155.347 69.7882L155.881 68.4513L156.951 69.7882C158.02 71.1251 158.823 72.462 159.625 74.0663C159.357 71.6599 159.357 69.2535 159.625 67.1144C160.16 60.6973 162.299 55.0824 164.705 49.2C166.042 45.7241 167.379 41.9808 168.716 38.5049C170.053 41.9808 171.389 45.7241 172.726 49.2C174.865 55.0824 177.272 60.9647 177.807 67.1144C178.074 69.5208 178.074 71.9273 177.807 74.3337C178.609 72.7294 179.678 71.1251 180.748 69.7882L181.817 68.4513L182.352 69.7882C183.956 74.0663 184.491 78.6117 184.224 83.1572C185.026 82.0877 185.561 81.0181 186.363 80.4834L187.7 79.4139L187.967 81.0181C188.234 83.6919 188.502 86.0983 188.502 88.7721C188.502 89.8416 188.502 90.6438 188.502 91.7133C189.304 89.8416 190.641 88.2374 191.978 87.1679L193.582 85.831V87.97C193.582 90.109 193.315 92.5154 193.047 94.9218C193.849 93.8523 194.651 92.7828 195.721 91.9807L197.058 90.3764V92.5154C197.325 94.9218 197.325 97.3283 196.791 99.7347C196.791 100.269 196.791 100.537 196.791 101.072C197.593 99.7347 198.93 98.3978 200.266 96.7935L201.871 95.4566V97.5956C201.871 98.9325 201.871 100.537 201.603 101.874C202.138 101.072 202.94 100.269 204.01 99.7347L205.347 98.6651V100.537C205.347 102.141 205.079 104.013 204.812 105.617C205.881 104.547 206.951 103.745 208.02 102.943L209.357 102.408V103.745C209.357 105.082 209.357 106.419 209.09 107.489C209.892 106.954 210.427 106.419 211.496 106.152L212.566 105.617L212.833 106.954C212.833 108.023 212.566 109.093 212.566 110.162C213.101 109.628 213.903 109.093 214.705 108.558L215.774 108.023L216.042 109.36C216.309 110.965 216.042 112.569 215.774 113.906L216.042 113.638C217.111 112.836 218.181 112.301 219.25 112.034L220.587 111.499V112.836C220.32 114.173 220.053 115.51 219.518 116.58C219.518 116.58 219.785 116.58 219.785 116.312C220.855 115.777 222.192 114.975 223.261 114.708L224.865 113.906L224.598 115.51C224.598 116.58 224.331 117.382 223.796 118.184C224.865 117.916 225.668 117.382 226.737 117.114L228.341 116.847L227.807 118.184C227.807 119.253 227.539 120.055 227.004 120.858C228.341 120.323 229.411 119.788 230.748 119.521H232.085L231.817 120.59C231.55 121.927 231.283 122.729 230.748 123.799C232.352 122.997 233.689 122.194 235.026 121.66L236.63 121.125L236.363 122.729C236.095 124.066 235.561 125.403 235.026 126.473C236.897 125.403 239.037 124.601 240.908 124.066L242.512 123.799L241.978 125.136C241.443 127.007 240.641 128.344 239.571 129.948C241.978 128.612 244.384 127.542 246.791 126.74L248.93 126.205L248.127 128.077C247.325 129.414 246.523 130.751 245.454 132.088C246.256 131.82 246.791 131.553 247.325 131.285C249.464 130.483 251.603 129.681 254.01 129.146L255.614 128.612L255.079 130.216C254.545 131.553 254.01 132.89 253.208 134.227C257.753 132.622 262.299 131.553 266.844 131.82L268.448 132.088L267.379 133.424C266.577 134.761 265.24 136.098 264.17 137.168C266.309 136.366 268.448 135.563 270.855 135.029C276.737 133.692 283.154 134.227 289.304 134.761C293.047 135.029 296.791 135.029 300.801 135.296C297.86 137.702 294.652 139.842 291.71 142.248C286.897 146.259 282.085 150.002 276.202 152.408C273.796 153.478 271.657 154.28 269.25 154.815C271.122 155.082 272.726 155.349 274.598 156.152L276.202 156.686L274.865 157.756C270.855 160.697 266.309 162.569 261.229 163.906C261.496 164.173 262.031 164.173 262.566 164.173C264.17 164.708 265.507 165.243 266.844 165.51L268.716 166.579L266.577 167.382C263.635 168.718 260.16 169.253 256.684 169.788C259.09 170.323 260.962 170.857 262.566 171.927L264.438 172.996L262.299 173.531C259.357 174.333 256.951 174.868 254.545 175.136C256.149 175.67 257.753 176.472 259.09 177.542L260.694 178.611L258.823 179.146C256.416 179.681 254.277 179.948 252.138 180.216C253.475 180.75 254.812 181.285 256.149 182.355L257.753 183.424L255.881 183.959C254.01 184.226 252.406 184.494 250.534 184.761C251.871 185.296 253.208 186.098 254.277 187.435L255.079 188.504L253.742 188.772C252.406 189.307 251.336 189.307 249.999 189.307C250.801 190.109 251.603 190.644 251.871 191.446L252.406 192.515L251.336 192.783C250.534 193.05 249.464 193.317 248.395 193.317C249.464 194.119 250.266 194.922 251.069 195.724L251.603 196.793L250.534 197.328C249.464 197.595 248.127 197.863 246.791 197.863C247.593 198.665 248.395 199.467 248.93 200.269L249.464 201.071L248.395 201.606C247.325 201.873 246.256 202.141 244.919 202.141V202.408C246.256 203.21 247.325 204.28 248.127 205.349L248.662 206.419L247.593 206.686C245.988 206.954 244.651 207.221 243.315 207.221C244.384 208.023 245.186 208.825 245.721 210.162L246.256 211.232H244.919C244.117 211.499 243.315 211.499 242.512 211.499C243.047 212.034 243.849 212.569 244.384 213.371L245.186 214.44L243.849 214.708C242.512 215.242 241.176 215.242 239.839 215.242H240.106C241.176 216.312 242.245 217.649 243.047 218.718L243.582 220.055L242.245 220.323C241.176 220.323 240.106 220.323 239.037 220.323C240.373 221.125 241.71 222.194 242.78 223.531L243.849 224.868H241.978C240.641 224.868 239.304 224.868 237.967 224.601C239.571 225.67 240.908 227.274 241.71 228.879L242.78 230.216H241.176C239.571 230.216 237.967 229.948 236.363 229.413C238.502 231.285 240.106 233.424 241.443 235.563L242.78 237.435L240.641 236.9C239.037 236.633 237.432 236.365 235.828 235.831C236.63 236.365 237.165 237.167 237.7 237.702C239.571 240.109 241.176 242.782 242.78 245.456C239.571 244.654 236.897 243.852 233.956 242.515C237.432 247.06 241.176 252.141 243.849 257.221C241.443 256.686 239.839 255.884 237.432 254.547C239.304 256.686 240.908 258.558 242.245 260.697C245.721 265.777 247.325 271.927 249.197 277.809C250.534 282.354 251.603 285.83 253.475 290.108C249.999 287.167 246.791 285.296 242.78 282.889C237.432 279.681 232.085 276.472 228.074 271.927C226.202 270.055 224.865 268.183 223.261 266.044C223.796 267.916 224.063 269.788 224.063 271.659V273.264L222.726 272.461C218.181 269.788 214.705 265.777 211.496 261.232C211.496 261.499 211.496 261.766 211.496 262.034C211.496 263.638 211.229 265.242 210.962 266.579L210.427 268.451L209.357 266.847C206.951 263.905 205.079 260.697 203.208 257.488C203.208 257.488 203.208 257.221 202.94 256.953C203.475 260.429 203.475 263.371 202.94 266.579C200.534 264.44 199.197 261.766 197.86 258.825C197.86 260.697 197.593 262.301 197.325 263.905L196.791 265.777L195.721 264.173C194.117 262.301 193.047 260.162 191.978 257.756C191.71 259.36 191.443 260.697 190.908 262.301L190.373 263.638L189.304 262.301C188.234 260.964 187.432 259.093 186.897 257.221C186.363 258.825 186.095 260.162 185.293 261.499L184.758 262.836L183.956 261.766C183.154 260.697 182.352 259.627 181.817 258.29C181.55 259.36 181.283 260.429 180.748 261.232L179.946 262.836L179.143 261.232C178.609 260.429 178.341 259.627 177.807 258.558C177.539 259.36 177.272 260.162 176.737 260.964L176.202 262.301L175.4 261.232C174.865 260.429 174.331 259.627 173.796 258.825C173.528 259.895 172.994 260.964 172.459 261.766L171.657 262.836L170.855 261.766C170.32 260.964 169.785 260.162 169.25 258.825C168.983 258.29 168.983 258.023 168.716 257.488C168.181 258.825 167.646 260.162 166.844 260.964L166.042 261.766L165.24 260.964C164.705 259.895 164.17 259.093 163.635 257.756C163.101 259.36 162.566 260.429 161.764 261.766L160.694 263.103L160.16 261.499C159.625 260.429 159.357 259.36 159.09 258.29C158.555 259.36 157.753 260.429 156.951 261.232L155.881 262.301L155.347 260.964C155.079 260.162 154.812 259.093 154.812 258.023L154.545 258.29C154.01 259.895 152.94 261.232 151.603 262.034L150.534 262.836L150.266 261.499C149.999 260.429 149.732 259.36 149.464 258.29C148.93 260.162 147.86 261.766 146.523 263.103L145.454 264.44L144.919 262.836C144.651 261.232 144.651 259.627 144.651 258.023C144.384 258.29 144.384 258.558 144.384 258.825C143.047 261.232 141.71 262.836 140.106 264.173L138.769 265.242V263.371C138.769 262.301 138.769 260.964 139.036 259.895C137.432 262.568 136.363 264.44 134.224 266.579C133.956 264.707 133.689 263.103 133.689 261.232C132.619 263.371 131.015 264.975 129.143 266.847L127.807 268.183V266.044C127.539 263.638 127.807 261.232 128.074 258.558ZM138.769 248.665C137.967 251.873 137.165 254.547 135.828 257.221C135.561 258.558 135.561 259.627 135.561 260.697C135.561 261.232 135.561 261.499 135.561 261.766C136.63 260.429 137.432 258.825 138.234 257.221C139.304 254.814 140.373 252.408 141.176 250.002V249.467C140.373 249.199 139.571 248.932 138.769 248.665ZM209.357 257.488C207.218 254.012 205.347 250.269 203.475 246.526C202.673 246.793 201.871 247.328 201.069 247.595C202.138 250.804 203.475 253.745 204.812 256.686C206.416 259.36 207.753 261.766 209.625 264.173C209.625 263.638 209.625 262.836 209.625 262.034C209.625 260.697 209.625 259.36 209.357 257.488ZM205.079 245.456C207.486 250.804 210.16 255.884 213.101 260.162C215.774 264.173 218.448 267.381 222.192 269.788C221.924 268.183 221.657 266.579 221.122 265.242C220.587 263.103 219.518 260.964 218.448 258.825V258.558C217.111 256.686 216.042 254.28 214.705 252.141C213.101 249.199 211.229 245.991 209.357 243.05C208.02 243.852 206.416 244.654 205.079 245.456ZM143.047 250.269C142.245 252.675 141.71 254.814 141.176 256.953C140.908 258.558 140.641 259.895 140.641 261.232C141.443 260.162 141.978 259.093 142.512 258.023C143.582 256.151 144.384 253.745 145.186 251.071C144.384 250.804 143.849 250.536 143.047 250.269ZM147.058 251.606C146.791 253.21 146.523 254.814 146.523 256.419C146.523 257.756 146.523 259.093 146.523 260.162C147.86 258.023 148.662 255.349 149.464 252.408C149.464 252.408 149.464 252.408 149.732 252.141C148.662 252.141 147.86 251.873 147.058 251.606ZM151.603 252.675C151.336 254.012 151.069 255.349 151.336 256.419C151.336 257.488 151.336 258.558 151.603 259.627C152.138 259.093 152.673 258.29 152.94 257.488C153.475 256.419 154.01 254.814 154.277 253.21C153.475 253.21 152.405 252.943 151.603 252.675ZM156.416 253.745C156.149 254.814 156.149 255.884 156.416 256.686C156.416 257.488 156.684 258.023 156.684 258.825C157.218 258.023 157.486 257.488 157.753 256.686C158.288 255.884 158.555 254.814 158.823 254.012C158.02 254.012 157.218 253.745 156.416 253.745ZM160.694 254.28C160.694 255.349 160.694 256.419 160.694 257.221C160.962 257.756 160.962 258.558 161.229 259.093C161.496 258.558 161.764 257.756 162.031 257.221C162.299 256.419 162.833 255.349 163.101 254.547C162.299 254.28 161.496 254.28 160.694 254.28ZM165.24 254.547C165.24 255.349 165.24 256.151 165.507 256.953C165.507 257.756 165.774 258.29 166.042 258.825C166.577 258.29 166.844 257.756 166.844 256.953C167.111 256.151 167.379 255.349 167.646 254.547C166.844 254.547 166.042 254.547 165.24 254.547ZM169.785 254.547C170.053 255.884 170.587 257.221 170.855 258.023C171.122 258.558 171.389 259.093 171.657 259.36C172.192 258.023 172.459 256.419 172.726 254.547C171.924 254.547 170.855 254.547 169.785 254.547ZM174.598 254.28C174.865 255.617 174.865 256.686 175.133 257.488C175.4 258.023 175.668 258.29 175.935 258.825C176.202 258.023 176.47 257.488 176.47 256.686C176.737 255.884 176.737 255.082 176.737 254.28C176.202 254.28 175.4 254.28 174.598 254.28ZM178.609 254.012C178.876 255.349 179.143 256.151 179.411 257.221C179.411 257.756 179.678 258.29 179.946 258.825C180.213 258.023 180.213 257.488 180.48 256.686C180.748 255.884 181.015 254.814 181.015 253.745C180.213 253.745 179.411 254.012 178.609 254.012ZM182.887 253.21C182.887 253.478 182.887 253.745 182.887 253.745C182.887 254.814 182.887 255.884 183.154 256.953C183.422 257.756 183.956 258.558 184.224 259.093C184.758 258.29 185.026 257.221 185.026 256.151C185.293 255.082 185.561 254.012 185.561 252.675C184.758 252.943 183.689 253.21 182.887 253.21ZM187.7 252.408C187.7 253.745 187.967 255.349 188.502 256.686C188.769 257.756 189.304 258.825 189.839 259.627C190.106 258.558 190.373 257.221 190.373 255.884C190.641 254.547 190.373 253.21 190.373 251.873V251.606C189.304 251.873 188.502 252.141 187.7 252.408ZM191.978 251.071C191.978 251.071 192.245 251.339 192.245 251.606C192.512 253.478 193.047 255.349 193.582 256.953C194.384 258.558 194.919 259.895 195.721 261.232C195.988 259.895 195.988 258.29 195.721 256.686C195.721 254.814 195.454 252.943 194.919 250.536C194.919 250.536 194.919 250.269 194.651 250.002C193.849 250.536 193.047 250.804 191.978 251.071ZM196.523 249.467C196.523 249.734 196.523 250.002 196.791 250.269C197.325 252.675 198.127 255.082 198.93 257.221C199.732 258.825 200.534 260.697 201.603 262.034C201.603 259.895 201.336 258.023 201.069 255.884C200.534 253.21 199.999 250.804 199.197 248.397C198.395 248.665 197.325 249.199 196.523 249.467ZM233.689 250.536C235.026 251.339 236.095 251.873 237.165 252.408C237.967 252.675 238.769 253.21 239.571 253.478C236.363 248.932 233.422 244.387 229.678 240.376C226.47 238.772 223.529 236.633 220.855 234.226C220.053 235.028 219.518 235.563 218.716 236.365C221.122 238.772 223.529 240.911 226.202 243.317C228.609 245.724 231.283 248.13 233.689 250.536ZM210.962 241.98C212.833 245.189 214.705 248.13 216.309 251.339C220.32 258.023 224.063 264.975 229.411 270.59C233.422 275.135 238.502 278.076 243.849 281.285C245.721 282.354 247.593 283.424 249.197 284.761C248.662 282.622 248.127 280.483 247.325 278.344C245.721 272.461 244.117 266.579 240.641 261.766C236.363 255.349 230.748 250.002 224.865 244.654C222.192 242.248 219.785 239.841 217.111 237.435C215.24 239.039 213.101 240.643 210.962 241.98ZM222.192 233.157C224.865 235.296 227.807 237.435 231.015 239.039C233.422 240.376 236.095 241.446 238.769 242.515C237.967 241.178 237.165 240.109 236.095 239.039C234.758 237.167 233.422 235.563 232.085 234.226H231.817C229.411 233.157 227.272 231.82 224.865 230.216C224.331 231.018 223.796 231.552 223.261 232.087C222.994 232.355 222.459 232.622 222.192 233.157ZM226.202 228.879C228.341 230.216 230.48 231.552 232.619 232.622C234.491 233.424 236.63 234.226 238.769 234.494C237.432 233.157 236.095 231.82 234.758 230.483C232.887 228.879 231.015 227.274 228.876 225.67C228.074 226.74 227.004 227.809 226.202 228.879ZM229.946 224.333C231.55 225.403 233.154 226.205 235.026 227.007C236.363 227.542 237.7 228.077 239.037 228.344C238.234 227.274 237.165 226.205 236.095 225.403C234.758 224.066 233.154 223.264 231.55 222.194C231.015 222.996 230.48 223.531 229.946 224.333ZM232.619 220.857C233.956 221.392 235.293 221.927 236.63 222.194C237.7 222.462 238.502 222.729 239.571 222.996C239.037 222.462 238.234 221.927 237.432 221.392C236.363 220.59 235.026 220.055 233.422 219.253C233.154 219.788 232.887 220.323 232.619 220.857ZM234.491 217.649C235.561 217.916 236.63 218.184 237.7 218.184C238.502 218.451 239.571 218.451 240.641 218.451C240.106 217.916 239.571 217.114 238.769 216.579C237.967 215.777 237.165 215.242 236.363 214.44C235.828 215.51 235.293 216.579 234.491 217.649ZM237.432 212.569C238.234 212.836 239.037 213.103 239.839 213.371C240.373 213.371 241.176 213.371 241.71 213.371C241.443 213.103 240.908 212.569 240.373 212.301C239.571 211.766 238.769 211.499 237.967 211.232C237.7 211.766 237.7 212.034 237.432 212.569ZM239.037 209.36C239.839 209.36 240.373 209.627 241.176 209.627C241.978 209.627 242.512 209.627 243.315 209.627C242.78 209.36 242.512 208.825 241.978 208.558C241.443 208.023 240.641 207.488 239.839 207.221C239.571 207.756 239.304 208.558 239.037 209.36ZM240.641 205.082C241.443 205.082 242.245 205.349 243.047 205.349C243.849 205.349 244.651 205.349 245.454 205.082C245.186 204.547 244.384 204.28 243.849 203.745C243.047 203.21 242.512 202.943 241.71 202.408C241.443 203.478 240.908 204.28 240.641 205.082ZM242.245 200.269C243.047 200.537 243.849 200.537 244.651 200.537C245.186 200.269 245.988 200.269 246.523 200.269C246.256 199.734 245.721 199.467 245.186 199.2C244.651 198.665 243.849 198.397 243.047 198.13C242.78 198.665 242.512 199.467 242.245 200.269ZM243.582 195.991C244.384 195.991 245.454 196.258 246.256 195.991C247.058 195.991 247.86 195.991 248.662 195.991C248.127 195.456 247.593 194.922 246.791 194.654C245.988 194.119 244.919 193.852 244.117 193.585C243.849 194.387 243.849 195.189 243.582 195.991ZM244.384 191.446C245.454 191.446 246.256 191.713 247.325 191.713C248.127 191.713 248.93 191.446 249.464 191.446C249.197 190.911 248.662 190.644 248.127 190.376C247.058 190.109 245.988 189.574 244.919 189.307C244.651 189.841 244.651 190.644 244.384 191.446ZM245.186 187.168C246.256 187.435 247.593 187.435 248.662 187.702C249.732 187.702 250.534 187.702 251.603 187.435C250.801 186.9 249.999 186.365 248.93 186.098C247.86 185.563 246.791 185.296 245.454 184.761C245.186 185.563 245.186 186.365 245.186 187.168ZM245.454 182.89C247.058 182.89 248.395 182.89 249.732 182.89C250.801 182.89 251.871 182.622 252.94 182.622C252.138 182.087 251.336 181.82 250.266 181.553C248.662 181.018 247.325 180.75 245.721 180.483C245.721 181.285 245.721 182.087 245.454 182.89ZM245.721 178.611C247.593 178.611 249.464 178.611 251.336 178.344C252.94 178.344 254.545 178.077 256.149 177.809C252.94 176.205 249.464 175.938 245.721 175.938C245.721 176.472 245.721 177.007 245.721 177.542C245.721 178.077 245.721 178.344 245.721 178.611ZM245.721 174.066H246.256C250.266 173.799 254.277 173.799 259.357 172.462C257.753 171.927 256.149 171.66 254.01 171.392C251.336 171.125 248.395 171.125 245.454 171.125C245.454 172.194 245.454 172.996 245.721 174.066ZM245.186 169.253C245.988 169.253 246.523 169.253 247.325 168.986C252.94 168.718 258.555 168.184 263.635 166.579C263.101 166.312 262.566 166.312 262.031 166.045C260.427 165.777 258.823 165.243 256.684 164.975C252.94 165.51 248.93 166.045 244.919 166.312C244.919 167.382 245.186 168.184 245.186 169.253ZM244.651 164.708C249.999 164.173 255.079 163.371 259.892 162.301C264.438 161.232 268.716 159.628 272.192 157.221C270.587 156.954 268.983 156.686 267.379 156.419C265.24 156.419 262.833 156.419 260.427 156.686C258.02 157.221 255.614 157.489 253.208 158.023C249.999 158.558 246.791 158.825 243.582 159.628C243.849 161.232 244.384 162.836 244.651 164.708ZM240.106 148.398C243.047 147.061 245.988 145.724 248.93 144.12C251.069 143.05 253.208 141.981 255.614 140.911C257.753 139.574 259.625 138.505 261.496 137.168C262.566 136.098 263.903 135.029 264.972 133.692C260.694 133.692 256.416 134.761 251.871 136.633C247.325 138.505 242.512 140.911 237.7 143.585C238.502 145.189 239.304 146.793 240.106 148.398ZM243.047 157.756C246.256 157.221 249.732 156.686 252.94 156.152C260.694 154.815 268.448 153.745 275.4 150.804C281.015 148.398 285.828 144.654 290.641 140.911C292.245 139.574 293.849 138.237 295.721 136.9C293.582 136.9 291.443 136.633 289.037 136.633C283.154 136.098 277.004 135.563 271.122 136.9C263.635 138.772 256.684 142.248 249.732 145.724C246.791 147.328 243.849 148.932 240.641 150.269C241.71 152.676 242.512 155.349 243.047 157.756ZM236.897 141.981C240.908 139.574 244.919 137.435 248.93 135.831C249.999 135.029 251.069 133.959 251.603 133.157C252.138 132.622 252.406 131.82 252.673 131.285C251.069 131.82 249.464 132.355 248.127 132.89C245.988 133.959 244.117 135.029 242.245 136.098C240.373 137.97 238.502 139.574 236.363 141.178C236.63 141.446 236.897 141.713 236.897 141.981ZM185.026 102.408C185.561 100.537 185.828 98.3978 186.363 96.5261C186.63 93.8523 186.63 91.4459 186.63 88.7721C186.63 86.9005 186.63 85.2962 186.363 83.4245C186.095 83.6919 185.828 84.2267 185.828 84.4941C185.026 85.5636 184.491 86.9005 183.956 88.2374C183.422 92.5154 182.619 97.0609 181.55 101.874C182.887 101.874 183.956 102.141 185.026 102.408ZM235.561 139.574C237.7 137.702 239.571 136.098 241.443 134.227C242.78 132.622 244.117 131.018 245.186 129.414C243.315 129.948 241.71 130.751 239.839 131.82C237.7 132.89 235.561 134.494 233.422 136.098C234.224 137.168 235.026 138.237 235.561 139.574ZM232.352 134.494L232.887 134.227C235.293 131.82 238.234 129.146 239.571 126.473C238.234 126.74 236.897 127.542 235.828 128.077C233.956 129.146 232.085 130.483 230.48 131.82C231.283 132.622 231.817 133.424 232.352 134.494ZM229.411 130.216C231.283 128.612 233.154 126.74 233.956 124.066C233.154 124.601 232.085 125.136 231.015 125.938C229.946 126.473 228.876 127.542 227.807 128.344C228.341 128.879 228.876 129.681 229.411 130.216ZM226.47 127.007C227.272 126.205 227.807 125.136 228.341 124.334C228.876 123.531 229.411 122.729 229.678 121.66C228.876 121.927 228.074 122.462 227.272 122.997C226.47 123.531 225.4 124.066 224.598 124.868C225.4 125.403 225.935 126.205 226.47 127.007ZM223.261 123.531C224.063 122.729 224.331 121.927 224.865 121.125C225.133 120.59 225.4 120.055 225.668 119.521C225.133 119.788 224.331 120.055 223.796 120.323C223.261 120.858 222.459 121.392 221.924 121.927C222.459 122.462 222.726 122.729 223.261 123.264C223.261 123.264 223.261 123.264 223.261 123.531ZM220.32 120.59C221.122 119.521 221.924 118.451 222.459 117.114C221.924 117.382 221.389 117.649 220.855 117.916C220.053 118.451 219.518 118.986 218.983 119.253C219.518 119.788 220.053 120.323 220.32 120.59ZM217.111 117.649C217.646 116.58 217.914 115.51 218.448 114.441C217.914 114.708 217.646 114.975 217.379 114.975C216.577 115.51 216.042 116.045 215.507 116.58C216.042 116.847 216.577 117.382 217.111 117.649ZM213.368 114.975C213.903 113.638 214.17 112.301 214.438 110.965C213.903 111.499 213.368 111.767 212.833 112.301C212.299 112.569 212.031 113.104 211.496 113.638C212.299 114.173 212.833 114.441 213.368 114.975ZM209.892 112.569C210.16 111.767 210.427 111.232 210.427 110.43C210.694 109.895 210.694 109.093 210.962 108.558C210.427 108.826 209.892 109.36 209.357 109.895C209.09 110.43 208.555 110.965 208.288 111.499C208.823 111.767 209.357 112.301 209.892 112.569ZM206.416 110.43C206.951 109.093 207.486 107.489 207.486 105.617C206.951 105.884 206.416 106.419 205.881 106.954C205.079 107.756 204.545 108.558 204.01 109.093C204.812 109.628 205.614 110.162 206.416 110.43ZM202.138 108.291C202.406 107.221 202.673 106.419 202.94 105.35C203.208 104.28 203.208 103.478 203.475 102.408C202.94 102.943 202.406 103.745 201.871 104.28C201.069 105.082 200.534 106.152 199.999 107.221C200.534 107.489 201.336 108.023 202.138 108.291ZM198.127 106.419C198.93 104.547 199.732 102.408 199.999 100.002C199.197 100.804 198.662 101.606 197.86 102.408C197.325 103.478 196.523 104.547 195.988 105.617C196.791 105.884 197.325 106.152 198.127 106.419ZM193.849 104.815C194.384 103.211 194.919 101.339 195.186 99.4673C195.186 97.863 195.454 96.5261 195.454 94.9218C194.384 96.2587 193.582 97.863 193.047 99.1999C192.512 100.269 192.245 101.339 191.978 102.408C191.71 102.943 191.71 103.478 191.443 104.013C192.245 104.28 193.047 104.547 193.849 104.815ZM189.571 103.478C189.839 102.943 189.839 102.408 190.106 101.874C190.373 100.002 190.908 98.1304 191.176 95.9914C191.443 94.1197 191.443 91.9807 191.71 90.109C190.373 91.4459 189.571 93.3176 188.769 95.1892C187.967 97.5956 187.432 100.269 186.897 102.943C187.7 103.211 188.769 103.211 189.571 103.478ZM179.678 101.606C181.015 95.9914 182.085 90.6438 182.352 85.5636C182.619 80.7508 182.352 76.2053 181.283 72.1946C180.213 73.5315 179.678 75.1358 178.876 76.4727C178.074 78.6117 177.539 80.7508 177.272 83.1572H177.004C176.737 85.831 176.47 88.2374 176.202 90.6438C175.668 94.1197 175.133 97.5956 174.865 100.804C176.47 101.072 178.074 101.339 179.678 101.606ZM163.101 100.804C162.833 97.5956 162.299 94.1197 161.764 90.6438C161.229 88.2374 160.962 85.831 160.427 83.1572C160.16 80.7508 159.625 78.6117 158.555 76.4727C158.02 75.1358 157.486 73.5315 156.416 72.1946C155.347 76.2053 155.079 80.7508 155.347 85.5636C155.614 90.6438 156.684 95.9914 157.753 101.339C159.625 101.339 161.496 101.072 163.101 100.804ZM172.994 100.804C173.261 97.3283 173.796 93.8523 174.331 90.3764C175.4 82.6224 176.47 74.8684 175.935 67.1144C175.4 61.2321 173.261 55.6171 171.122 50.0022C170.32 47.8631 169.518 45.9915 168.716 43.8525C167.914 45.9915 167.111 47.8631 166.309 50.0022C164.17 55.6171 161.764 61.2321 161.496 67.1144C160.962 74.8684 162.299 82.6224 163.368 90.3764C164.17 93.8523 164.705 97.3283 164.972 100.804C166.309 100.804 167.646 100.804 168.716 100.804C170.053 100.804 171.657 100.804 172.994 100.804ZM154.812 94.6545C154.01 91.9807 153.208 89.3069 152.405 87.1679C151.603 85.5636 151.069 84.2267 149.999 83.1572C149.732 85.0288 149.464 86.9005 149.464 88.7721C149.197 90.9112 149.197 93.5849 149.464 95.9914C150.534 98.1304 151.069 100.269 151.603 102.676C153.208 102.141 154.545 101.874 156.149 101.874C155.614 99.4673 155.079 97.0609 154.812 94.6545ZM149.999 102.943C149.464 100.804 148.662 98.6651 147.86 96.5261C146.791 94.9218 145.721 93.0502 144.384 91.7133C144.384 93.8523 144.651 95.9914 144.919 97.863C145.454 100.002 145.988 101.874 147.058 103.745C147.86 103.478 148.93 103.211 149.999 102.943ZM145.186 104.28C144.384 102.943 143.315 101.606 142.512 100.269C141.443 99.1999 140.641 98.1304 139.571 97.3283C139.571 98.6651 139.839 100.002 140.106 101.339C140.641 102.943 141.176 104.28 141.71 105.617C142.78 105.082 144.117 104.815 145.186 104.28ZM139.839 106.419V106.152C138.502 104.547 137.432 102.943 135.828 101.339C136.095 102.141 136.095 103.211 136.363 104.013C136.63 105.082 136.897 106.152 137.432 107.221C138.234 106.954 139.036 106.687 139.839 106.419ZM135.561 108.291C135.026 107.489 134.491 106.687 133.956 105.884C133.422 105.082 132.887 104.547 132.085 104.013C132.085 105.082 132.352 105.884 132.619 106.687C132.887 107.489 133.154 108.291 133.689 109.093C134.224 108.826 135.026 108.558 135.561 108.291ZM131.817 110.162C131.282 109.093 130.48 108.023 129.143 106.954C129.411 107.756 129.411 108.291 129.678 108.826C129.946 109.628 130.213 110.162 130.48 110.965C131.015 110.697 131.55 110.43 131.817 110.162ZM128.609 112.034C127.807 110.965 126.737 110.162 125.935 109.36C126.202 110.697 126.737 111.767 127.272 112.836C127.807 112.569 128.074 112.301 128.609 112.034ZM125.668 113.906C124.598 112.836 123.528 111.499 122.192 110.697C122.192 111.499 122.459 112.034 122.726 112.836C122.994 113.371 123.528 114.173 124.063 114.975C124.598 114.708 125.133 114.441 125.668 113.906ZM122.459 116.312C121.924 115.777 121.389 115.243 120.855 114.975C120.32 114.708 120.053 114.441 119.785 114.173C119.785 114.708 120.053 115.243 120.053 115.51C120.32 116.312 120.587 116.847 120.855 117.649C121.389 117.114 121.924 116.58 122.459 116.312ZM118.983 118.986C118.448 118.451 117.914 117.916 117.379 117.649C116.844 117.114 116.309 116.847 115.507 116.58C115.774 117.114 116.042 117.649 116.577 118.451C116.844 118.986 117.111 119.521 117.646 120.055C118.181 119.788 118.448 119.253 118.983 118.986ZM116.042 121.66C115.507 121.125 114.705 120.59 114.17 120.055C113.635 119.788 112.833 119.521 112.299 119.253C112.566 119.788 112.833 120.59 113.101 121.125C113.635 121.927 114.17 122.462 114.438 122.997C114.972 122.462 115.507 122.194 116.042 121.66ZM113.101 124.601C112.299 123.799 111.496 123.264 110.694 122.729C109.892 122.194 109.357 121.927 108.555 121.66C109.09 122.462 109.357 123.264 109.892 124.066C110.427 124.868 110.962 125.403 111.764 126.205C112.031 125.67 112.566 125.136 113.101 124.601ZM110.427 127.542C109.357 126.74 108.288 126.205 106.951 125.403C106.149 124.868 105.079 124.334 104.01 124.066C104.545 124.868 105.079 125.67 105.614 126.473C106.684 127.542 107.486 128.612 108.555 129.681C109.09 128.879 109.625 128.344 110.427 127.542ZM107.486 131.285C105.881 130.216 104.277 129.146 102.94 128.077C101.603 127.542 100.534 126.74 99.1969 126.205C99.9991 127.542 100.801 128.879 101.871 129.948C102.94 131.285 104.277 132.355 105.614 133.692C106.149 132.89 106.684 132.088 107.486 131.285ZM104.545 135.296L104.277 135.029C100.266 132.89 96.5231 130.483 92.7798 128.879C93.0472 129.414 93.3146 129.948 93.8493 130.483C94.6515 131.82 95.721 132.89 97.0579 133.959C99.1969 135.029 101.069 136.366 102.94 137.702C103.475 136.9 104.01 136.098 104.545 135.296ZM102.138 139.307C99.4643 137.435 96.7905 135.831 93.8493 134.494C91.1755 133.157 88.2344 132.088 85.5606 131.285C85.8279 131.82 86.0953 132.355 86.3627 132.89C87.1648 133.692 88.2344 134.761 89.3039 135.831C93.0472 137.435 96.7905 139.574 100.801 141.713C101.069 140.911 101.603 140.109 102.138 139.307ZM99.9991 143.317C94.9188 140.644 90.106 137.97 85.2932 136.098C81.0151 134.494 76.4696 133.157 72.1916 133.157C73.2611 134.494 74.598 135.563 75.6675 136.633C77.5392 137.97 79.4108 139.307 81.5499 140.376C83.9563 141.446 86.0953 142.515 88.2344 143.585C91.4429 145.189 94.3841 146.793 97.5926 148.13C98.3948 146.526 99.1969 144.922 99.9991 143.317ZM76.737 156.152C74.3306 155.884 71.9242 155.884 69.7852 155.884C68.1809 156.152 66.5766 156.419 64.9723 156.686C68.4483 159.093 72.7263 160.697 77.2718 161.767C82.0846 163.103 87.4322 163.638 93.0472 164.173C93.3146 162.569 93.5819 160.964 94.1167 159.093C90.6408 158.558 87.4322 158.023 83.9563 157.489C81.5499 156.954 79.1434 156.686 76.737 156.152ZM92.7798 166.045C87.4322 165.51 82.6194 164.975 77.8065 163.906C77.0044 163.906 75.9349 163.906 74.8654 164.44C74.3306 164.44 74.0632 164.44 73.7958 164.708C78.8761 166.579 83.6889 166.847 88.2344 166.847C89.5713 166.847 91.1755 166.847 92.5124 166.847C92.5124 166.579 92.7798 166.312 92.7798 166.045ZM97.0579 150.002C93.8493 148.398 90.6408 146.793 87.4322 145.189C80.4803 141.713 73.5285 138.237 66.0418 136.366C60.1595 135.029 54.0097 135.563 48.1274 136.098C45.9884 136.098 43.8493 136.366 41.4429 136.366C43.3146 137.702 44.9188 139.039 46.7905 140.376C51.336 144.387 56.1488 148.13 61.7638 150.269C68.983 153.21 76.4696 154.28 84.2237 155.617C87.6996 156.152 91.1755 156.686 94.3841 157.489C95.1862 154.815 95.9884 152.408 97.0579 150.002ZM91.9777 173.531C89.8386 173.799 87.6996 173.799 85.5606 173.799C84.491 173.799 83.4215 174.066 82.352 174.601C82.0846 174.601 81.5499 174.868 81.2825 175.136C82.8868 175.67 84.7584 175.938 86.3627 176.205C88.2344 176.74 90.106 176.74 91.7103 176.74C91.7103 175.67 91.9777 174.601 91.9777 173.531ZM92.245 168.718C89.5713 168.718 86.8975 168.986 84.491 169.253C82.352 169.253 80.213 169.788 78.0739 170.323C80.213 171.125 82.352 171.392 84.491 171.66C86.8975 171.927 89.5713 171.927 91.9777 171.66C92.245 170.59 92.245 169.788 92.245 168.718ZM106.416 248.397C108.02 246.793 109.892 245.189 111.764 243.317C114.17 241.178 116.844 238.772 119.25 236.365C117.646 235.296 116.309 233.959 114.972 232.889C110.962 236.365 106.951 239.841 103.742 243.585C100.534 247.06 97.86 250.804 96.5231 254.814C97.86 254.28 99.4643 253.478 100.801 252.675C102.673 251.606 104.545 250.002 106.416 248.397ZM113.903 231.552C113.101 230.75 112.299 230.216 111.764 229.413C108.823 231.82 106.149 234.226 103.742 236.633C101.603 238.772 99.4643 241.178 97.5926 243.585C98.1274 243.585 98.9295 243.317 99.4643 243.05C100.534 242.782 101.871 242.248 102.94 241.446C106.149 237.97 109.892 234.761 113.903 231.552ZM110.427 228.077C110.159 227.542 109.625 227.007 109.09 226.472C108.555 226.74 108.02 227.274 107.486 227.542C105.881 228.879 104.277 230.216 102.94 231.82C101.336 233.424 99.9991 235.028 98.6622 236.9C98.9295 236.633 99.4643 236.633 99.7317 236.365C100.801 236.098 101.871 235.831 102.673 235.028C105.079 232.622 107.753 230.483 110.427 228.077ZM108.02 224.868C107.486 224.066 106.951 223.264 106.149 222.462C104.545 223.798 103.208 224.868 101.871 226.205C100.801 227.274 99.7317 228.611 98.9295 229.681C100.266 229.413 101.603 228.879 102.94 228.077C104.277 227.542 105.347 227.007 106.416 226.205C106.951 225.67 107.486 225.403 108.02 224.868ZM105.079 221.125C104.545 220.323 104.01 219.52 103.475 218.718C103.475 218.718 103.208 218.986 102.94 218.986C101.871 219.788 100.801 220.59 99.7317 221.659C98.9295 222.462 98.1274 223.531 97.3253 224.333C98.6622 224.333 99.7317 223.798 101.069 223.264C102.405 222.729 103.742 221.927 105.079 221.125ZM102.673 217.114C102.138 216.312 101.871 215.777 101.603 215.242C100.534 215.777 99.4643 216.312 98.6622 217.114C98.1274 217.649 97.3253 218.451 96.7905 219.253C97.86 218.986 98.6622 218.986 99.4643 218.451C100.266 218.184 101.069 217.916 101.871 217.381C102.138 217.381 102.405 217.114 102.673 217.114ZM100.534 213.371C99.9991 212.301 99.4643 211.232 99.1969 210.43C98.1274 210.964 97.3253 211.499 96.7905 212.034C95.9884 212.836 95.4536 213.371 95.1862 214.173C95.9884 214.173 97.0579 213.905 97.86 213.905C98.9295 213.638 99.7317 213.638 100.534 213.371ZM98.1274 208.291C97.86 207.756 97.5926 206.954 97.3253 206.151C96.5231 206.686 95.9884 207.221 95.1862 207.488C94.9188 208.023 94.3841 208.291 94.1167 208.825C94.6515 208.825 95.4536 208.825 95.9884 208.825C96.7905 208.825 97.5926 208.558 98.1274 208.291ZM96.5231 204.28C96.2557 203.478 95.9884 202.676 95.721 201.606C95.1862 201.873 94.6515 202.408 94.1167 202.676C93.5819 203.21 93.0472 203.745 92.5124 204.28C93.3146 204.547 93.8493 204.547 94.6515 204.547C95.1862 204.547 95.9884 204.547 96.5231 204.28ZM94.9188 199.734C94.6515 198.932 94.6515 198.13 94.3841 197.328C93.5819 197.595 93.0472 197.863 92.5124 198.13C91.9777 198.397 91.7103 198.932 91.1755 199.2C91.7103 199.467 92.5124 199.734 93.0472 199.734C93.8493 199.734 94.3841 199.734 94.9188 199.734ZM93.8493 195.189C93.5819 194.387 93.5819 193.585 93.3146 193.05C92.5124 193.317 91.9777 193.585 91.1755 193.852C90.6408 194.387 90.106 194.654 89.5713 195.189C90.3734 195.456 90.9081 195.456 91.7103 195.456C92.245 195.456 93.0472 195.456 93.8493 195.189ZM93.0472 190.911C92.7798 190.109 92.7798 189.307 92.5124 188.772C91.7103 189.039 91.1755 189.307 90.3734 189.841C89.8386 190.109 89.3039 190.376 88.7691 190.911C89.3039 190.911 89.8386 190.911 90.6408 190.911C91.4429 191.178 92.245 190.911 93.0472 190.911ZM92.245 186.365C92.245 185.563 92.245 184.761 91.9777 183.692C90.9081 183.959 90.106 184.226 89.0365 184.761C88.5017 185.029 87.6996 185.296 87.1648 185.563C87.967 185.831 88.5017 186.098 89.3039 186.098C90.3734 186.365 91.4429 186.365 92.245 186.365ZM91.9777 181.553C91.9777 180.75 91.7103 179.681 91.7103 178.879C90.3734 178.879 89.0365 179.146 87.6996 179.414C86.6301 179.681 85.5606 180.216 84.491 180.483C85.5606 180.75 86.6301 181.018 87.6996 181.285C89.0365 181.553 90.6408 181.553 91.9777 181.553ZM221.389 125.136C207.753 111.499 189.304 103.211 168.716 103.211C148.127 103.211 129.678 111.499 116.309 125.136C102.673 138.505 94.3841 157.221 94.3841 177.542C94.3841 198.13 102.673 216.847 116.309 230.216C129.678 243.585 148.127 252.141 168.716 252.141C189.304 252.141 207.753 243.585 221.389 230.216C234.758 216.847 243.047 198.13 243.047 177.542C243.047 157.221 234.758 138.505 221.389 125.136Z" fill="#004A74"/>
<path fill-rule="evenodd" clip-rule="evenodd" d="M168.722 119.253C201.075 119.253 227.279 145.456 227.279 177.542C227.279 209.894 201.075 236.098 168.722 236.098C136.637 236.098 110.434 209.894 110.434 177.542C110.434 145.456 136.637 119.253 168.722 119.253ZM168.722 144.654C186.904 144.654 201.877 159.627 201.877 177.542C201.877 195.723 186.904 210.697 168.722 210.697C150.541 210.697 135.835 195.723 135.835 177.542C135.835 159.627 150.541 144.654 168.722 144.654ZM171.396 125.135L172.466 124.601L173.268 124.066L174.337 123.798L175.674 123.531L177.011 123.264H178.348L179.685 123.531L181.022 123.798L182.626 124.066L183.963 124.333L185.567 124.868L186.904 125.403L188.241 126.205L189.578 127.007L190.915 127.809L192.252 128.611L193.321 129.413L194.391 130.215L195.193 131.285L195.995 132.087L196.53 133.157L197.065 133.959L197.332 135.028V135.83V136.9L197.065 137.702L196.53 138.504L189.311 148.13L189.043 147.862L188.241 147.328L187.706 146.793L186.369 146.258L185.033 145.456L183.428 144.654C182.626 144.387 181.824 144.119 181.022 143.584C180.22 143.317 179.418 143.05 178.615 142.782C177.813 142.515 177.011 142.515 176.209 142.248L174.872 141.98C174.07 141.713 173.268 141.713 172.733 141.445H171.396H170.861H170.327H169.792H169.525L169.257 130.75L169.525 129.146L169.792 127.809L170.059 126.74L170.861 125.937L171.396 125.135ZM201.877 136.9H202.947H204.017L205.086 137.435L206.156 137.702L207.225 138.504L208.295 139.306L209.364 140.108L210.434 141.178L211.503 142.248L212.305 143.584L213.375 144.921L214.177 146.258L214.979 147.595L215.514 148.932L216.049 150.269L216.583 151.606L217.118 152.943L217.385 154.28V155.616V156.953V158.023L217.118 159.092L216.851 159.895L216.316 160.697L215.781 161.231L214.979 161.766L214.177 162.301L202.947 166.044L202.68 165.242L202.412 164.707L201.877 163.103L201.075 161.766L200.541 160.429L199.471 158.825C199.204 158.023 198.669 157.488 198.134 156.686C197.599 155.884 197.065 155.349 196.797 154.547C196.262 154.012 195.728 153.477 195.193 152.675L194.123 151.606L193.054 150.804C192.252 150.002 191.717 149.467 190.648 148.932L196.797 139.841L197.867 138.772L198.669 137.969L199.738 137.435L200.808 136.9H201.877ZM219.525 164.173L220.327 164.707L221.129 165.509L221.931 166.312L222.466 167.381L223 168.718L223.268 169.788L223.803 171.124V172.729L224.07 174.066V175.67V177.274V178.878L223.803 180.483L223.535 181.82L223.268 183.424L222.733 184.761L222.198 186.098L221.664 187.435L221.129 188.504L220.327 189.574L219.792 190.376L218.99 190.91L218.188 191.445L217.385 191.98H216.583H215.514H214.444L203.214 188.237L203.482 187.702L203.749 186.9V186.098L204.284 184.761L204.551 183.157V181.285C204.819 180.483 204.819 179.681 204.819 178.878C204.819 178.076 204.819 177.007 204.819 176.205C204.819 175.403 204.819 174.6 204.819 173.798L204.551 172.194V170.857C204.284 169.52 204.017 168.451 203.214 167.381L213.642 163.638L214.979 163.37L216.316 163.103L217.653 163.37L218.722 163.638L219.525 164.173ZM217.92 196.525L218.188 197.595L218.455 198.664V199.734L218.188 200.804L217.92 202.14L217.385 203.477L216.851 204.814L216.316 206.151L215.514 207.221L214.712 208.558L213.642 209.894L212.84 210.964L211.771 212.301L210.434 213.37L209.364 214.172L208.295 215.242L206.958 216.044L205.888 216.579L204.819 217.114L203.749 217.648L202.412 217.916H201.61H200.541L199.738 217.648L198.936 217.381L198.134 216.846L197.332 216.044L190.38 206.418L190.915 206.151L191.45 205.616L192.787 204.814L193.856 203.477L195.193 202.408C195.728 201.873 196.262 201.071 196.797 200.536C197.332 199.734 197.867 199.199 198.402 198.397C198.936 197.862 199.204 197.06 199.738 196.525C200.273 195.723 200.541 195.189 201.075 194.386L201.61 193.05C202.145 191.98 202.68 190.91 202.947 189.574L213.375 192.782L214.712 193.317L215.781 193.852L216.583 194.654L217.385 195.456L217.92 196.525ZM197.332 221.659L197.065 222.729L196.53 223.798L195.995 224.6L195.193 225.67L194.123 226.472L193.054 227.274L191.717 227.809L190.648 228.611L189.043 229.146L187.706 229.68L186.369 230.215L184.765 230.483L183.161 230.75L181.557 231.017L180.22 231.285H178.615L177.279 231.017H175.942L174.605 230.75L173.535 230.483L172.466 229.948L171.664 229.413L170.861 228.878L170.327 228.344L169.792 227.541L169.525 226.739V225.67V213.638H170.059H170.861H172.198L173.803 213.37L175.407 213.103C176.209 213.103 177.279 212.836 178.081 212.568C178.883 212.301 179.685 212.033 180.487 211.766C181.289 211.499 182.091 211.231 182.894 210.964C183.428 210.697 184.23 210.429 185.033 210.162L186.369 209.627C187.439 208.825 188.508 208.29 189.311 207.221L195.995 216.044L196.797 217.381L197.332 218.451L197.599 219.52V220.857L197.332 221.659ZM166.049 230.215L165.246 230.75L164.177 231.285L163.107 231.552L162.038 231.819L160.701 232.087H159.364L158.027 231.819L156.423 231.552L155.086 231.285L153.482 231.017L152.145 230.483L150.541 229.948L149.204 229.146L147.867 228.344L146.53 227.541L145.46 226.739L144.123 225.937L143.321 225.135L142.252 224.065L141.717 223.263L140.915 222.194L140.648 221.392L140.38 220.322L140.113 219.52L140.38 218.451L140.648 217.648L141.182 216.846L148.134 207.221L148.669 207.488L149.204 208.023L149.738 208.29L151.075 209.092L152.68 209.894L154.016 210.697L155.621 211.231C156.423 211.766 157.225 212.033 158.027 212.301C158.829 212.568 159.631 212.836 160.434 212.836L162.038 213.37C162.84 213.37 163.375 213.638 164.177 213.638C165.514 213.905 166.851 213.905 167.92 213.638L168.188 224.6V226.205L167.92 227.541L167.385 228.611L166.851 229.413L166.049 230.215ZM135.567 218.451H134.765H133.428L132.359 217.916L131.289 217.648L130.22 216.846L129.15 216.044L128.081 215.242L127.011 214.172L126.209 213.103L125.139 211.766L124.337 210.429L123.535 209.092L122.733 207.755L121.931 206.418L121.396 205.082L120.861 203.745L120.594 202.408L120.327 201.071L120.059 199.734V198.397V197.328L120.327 196.258L120.594 195.456L121.129 194.654L121.664 194.119L122.466 193.584L123.268 193.05L134.765 189.306V190.108L135.033 190.643L135.567 191.98L136.369 193.584L137.172 194.921L137.974 196.525C138.508 197.328 138.776 197.862 139.311 198.664C139.845 199.467 140.38 200.001 140.915 200.804L141.984 201.873C142.252 202.408 142.787 203.21 143.321 203.745L144.391 204.547L145.193 205.349L145.728 205.884L146.262 206.151L146.53 206.418H146.797L140.648 215.509L139.845 216.579L138.776 217.381L137.706 217.916L136.637 218.451H135.567ZM117.92 191.178L117.118 190.643L116.316 189.841L115.781 189.039L114.979 187.969L114.712 186.632L114.177 185.563L113.91 184.226L113.642 182.622L113.375 181.285V179.681V178.076L113.642 176.472V174.868L113.91 173.531L114.444 171.927L114.712 170.59L115.246 169.253L115.781 167.916L116.583 166.846L117.118 165.777L117.92 164.975L118.722 164.44L119.525 163.638L120.327 163.37L121.129 163.103L121.931 163.37H123L134.23 167.114V167.649L133.963 168.451L133.696 169.253L133.428 170.59L133.161 172.194L132.893 174.066C132.893 174.868 132.626 175.67 132.626 176.472V178.344V179.948C132.626 180.75 132.626 181.552 132.893 182.354V183.691L133.161 185.028L133.428 186.365L133.696 186.9L133.963 187.435V187.702L134.23 187.969L123.803 191.713L122.466 191.98L121.129 192.247L120.059 191.98L118.99 191.713L117.92 191.178ZM119.257 157.756V156.686V155.616V154.28L119.525 153.21L120.059 151.873L120.594 150.536L121.129 149.199L121.931 147.862L122.733 146.793L123.803 145.456L124.872 144.387L125.942 143.05L127.011 141.98L128.081 141.178L129.418 140.108L130.487 139.306L131.557 138.772L132.893 138.237L133.963 137.702L135.033 137.435H136.102H136.904L137.974 137.702L138.776 137.969L139.311 138.504L140.113 139.306L147.065 148.932L146.53 149.199L145.995 149.734L145.46 150.269L144.391 151.338L143.321 152.408L141.984 153.745C141.45 154.28 141.182 155.082 140.648 155.616C140.113 156.419 139.578 156.953 139.043 157.756C138.776 158.29 138.241 159.092 137.706 159.895C137.439 160.429 137.172 160.964 136.637 161.766C136.369 162.301 136.102 162.836 135.835 163.638L135.3 164.44C135.033 164.975 135.033 165.509 134.765 166.044L124.337 162.568L122.733 162.034L121.664 161.499L120.861 160.697L120.059 159.627L119.792 158.825L119.257 157.756ZM140.113 133.691L140.38 132.622L140.915 131.552L141.717 130.75L142.519 129.681L143.321 128.879L144.391 128.076L145.728 127.542L147.065 126.74L148.402 126.205L149.738 125.67L151.343 125.135L152.68 124.868L154.284 124.601L155.888 124.333L157.492 124.066H158.829H160.166L161.503 124.333L162.84 124.601L163.91 124.868L164.979 125.403L166.049 125.937L166.851 126.472L167.385 127.007L167.653 127.809L167.92 128.611L168.188 129.681V141.713H167.385H166.851H165.246L163.642 141.98L162.038 142.248C161.236 142.248 160.434 142.515 159.631 142.782C158.829 143.05 158.027 143.317 156.958 143.584C156.156 143.852 155.621 144.119 154.819 144.387L153.214 144.921C152.68 145.189 151.877 145.456 151.343 145.723C150.273 146.526 148.936 147.06 148.134 148.13L141.45 139.306L140.915 137.969L140.38 136.9L140.113 135.83L139.845 134.494L140.113 133.691Z" fill="#004A74"/>
<path d="M127.277 149.999L130.486 144.652L131.288 143.582L132.358 144.384C133.16 144.919 133.694 145.454 134.497 145.988C135.833 147.058 136.903 147.86 138.24 149.197C139.042 149.732 139.309 151.069 139.042 152.673C138.775 153.742 138.507 155.079 137.705 155.881C137.705 156.149 137.705 156.149 137.438 156.149C136.636 156.951 135.566 158.02 134.229 158.555C132.892 159.357 131.555 159.357 129.684 158.823L130.753 156.684C131.555 156.951 132.358 156.684 133.16 156.416C134.229 155.881 135.031 155.079 135.833 154.545V154.277C136.368 154.01 136.636 153.208 136.636 152.138C136.636 151.603 136.636 151.069 136.636 150.801C135.299 149.732 134.229 148.93 132.892 147.86C132.625 147.593 132.358 147.325 131.823 147.058L129.416 151.069L127.277 149.999Z" fill="#004A74"/>
<path d="M121.39 183.153C123.261 183.153 125.133 182.886 127.272 182.886C127.272 182.351 127.272 181.549 127.005 181.014C127.005 179.142 127.005 177.271 126.737 175.399C126.737 174.597 126.202 173.795 125.668 173.26C125.133 172.725 124.331 172.191 123.796 172.191C122.994 172.191 122.459 172.458 121.924 172.993C121.39 173.795 120.855 174.597 120.855 175.399C120.587 177.003 120.32 178.608 120.587 179.945C120.587 181.014 120.855 182.084 121.39 183.153ZM127.539 185.292C125.133 185.56 122.727 185.56 120.32 185.56L119.518 185.292L119.251 184.757C118.716 183.153 118.448 181.816 118.181 180.212C117.914 178.608 118.181 176.736 118.448 174.864C118.716 173.527 119.251 172.191 120.32 171.388C121.122 170.319 122.459 169.784 123.796 169.784C124.866 169.784 126.202 170.586 127.272 171.388C128.341 172.458 129.144 174.062 129.144 175.132C129.411 177.003 129.411 178.875 129.678 181.014C129.678 181.816 129.678 182.886 129.678 183.955V185.025H128.609C126.737 185.292 127.807 185.292 127.539 185.292Z" fill="#004A74"/>
<path d="M148.401 142.779C148.401 142.511 148.133 142.244 147.866 141.976C147.064 140.907 146.262 140.105 145.994 138.768C145.192 136.629 145.727 134.757 146.529 133.42C147.599 131.549 149.47 130.212 151.342 129.677C151.877 129.41 152.412 129.142 152.679 129.142C154.551 128.608 156.422 128.608 158.027 129.142C159.631 129.41 160.968 130.747 161.77 132.618C161.77 132.886 161.77 132.886 161.77 133.153C162.305 134.222 162.305 135.559 162.305 136.629C162.305 137.164 162.305 137.698 162.572 138.233L160.166 138.501C159.898 137.966 159.898 137.431 159.898 136.896C159.898 136.094 159.898 135.559 159.631 134.757C157.759 135.292 155.888 135.827 154.016 136.362C152.144 137.164 150.54 137.966 148.668 139.035C148.936 139.303 149.47 139.837 149.738 140.372C150.005 140.907 150.273 141.174 150.54 141.442L148.401 142.779ZM148.668 134.49C148.401 135.025 148.133 135.827 148.133 136.629C149.738 135.559 151.342 134.757 153.214 134.222C155.085 133.42 156.957 132.886 158.829 132.618C158.561 131.816 158.027 131.549 157.224 131.281C156.155 131.014 154.818 131.014 153.214 131.549C152.946 131.549 152.412 131.816 152.144 131.816C150.54 132.351 149.47 133.42 148.668 134.49Z" fill="#004A74"/>
<path d="M191.182 133.423C191.182 135.027 191.182 136.631 190.914 137.968C190.647 139.572 189.845 140.909 189.043 142.246L186.904 140.909C187.438 140.107 187.973 139.038 188.24 138.235C186.636 137.166 185.032 136.631 183.16 136.096C181.556 135.562 179.684 135.294 178.08 135.294C177.813 136.096 177.813 136.899 177.813 137.968H175.406C175.406 136.364 175.406 135.027 176.208 133.423C176.743 132.086 177.545 130.481 178.615 129.145L180.486 130.749C179.952 131.551 179.417 132.086 178.882 132.888C180.754 132.888 182.358 133.423 183.962 133.69C185.567 134.225 187.171 134.759 188.775 135.829C188.775 135.027 188.775 134.492 188.775 133.69L191.182 133.423Z" fill="#004A74"/>
<path d="M196.254 149.198C196.521 147.594 197.323 146.257 198.393 145.187C199.462 144.118 200.799 143.315 202.404 143.048C203.473 142.781 204.81 143.315 205.88 144.118C206.949 144.92 207.751 146.257 208.019 147.326C208.286 148.128 208.019 148.663 207.751 149.198C208.286 149.198 208.821 149.465 209.356 149.465C209.356 149.733 209.356 149.733 209.623 149.733C210.692 150.267 211.495 151.337 211.762 152.406C212.029 153.476 212.029 154.813 211.495 155.615C211.495 155.882 211.227 155.882 211.227 155.882C210.692 157.219 209.356 158.289 208.019 158.823C206.682 159.626 204.81 159.893 203.473 159.626L203.741 157.219C204.81 157.487 205.88 157.219 206.949 156.684C208.019 156.15 208.821 155.615 209.088 154.813C209.088 154.813 209.088 154.813 209.356 154.813C209.356 154.278 209.623 153.476 209.356 153.208C209.088 152.674 208.821 152.139 208.286 151.872C208.019 151.604 207.751 151.604 207.484 151.604C206.949 151.604 206.414 151.604 205.88 151.604L203.741 151.872L204.543 150C204.81 149.733 205.077 149.198 205.077 148.93C205.345 148.663 205.612 148.128 205.612 147.861C205.612 147.326 205.077 146.524 204.275 145.989C203.741 145.454 203.206 145.454 202.671 145.454C201.869 145.454 200.799 145.989 200.265 146.791C199.462 147.594 198.928 148.663 198.66 149.733L196.254 149.198Z" fill="#004A74"/>
<path d="M208.285 170.051H208.553C210.692 169.784 213.633 168.982 216.039 170.586C217.109 171.121 218.178 172.19 218.98 173.527C219.515 174.864 220.05 176.201 220.05 177.538C219.782 179.142 219.515 180.479 218.98 181.816C218.446 183.153 217.376 184.222 216.307 185.024C214.168 186.094 211.494 185.559 209.087 185.024C208.82 185.024 208.82 185.024 208.285 185.024L208.82 182.618C209.087 182.618 209.355 182.618 209.622 182.618C210.157 182.885 210.424 182.885 210.959 182.885C211.226 181.281 211.494 179.409 211.494 177.538C211.494 175.666 211.494 174.062 211.226 172.19C210.424 172.19 209.622 172.458 209.087 172.458H208.82L208.285 170.051ZM214.702 172.458C214.435 172.458 214.168 172.19 213.633 172.19C213.9 174.062 213.9 175.934 213.9 177.805C213.9 179.409 213.633 181.281 213.365 183.153C213.9 183.153 214.435 183.153 214.97 182.885C215.772 182.351 216.307 181.549 216.841 180.746C217.376 179.944 217.376 178.607 217.376 177.538C217.643 176.468 217.376 175.666 216.841 174.864C216.307 173.795 215.504 172.992 214.702 172.458Z" fill="#004A74"/>
<path d="M203.478 195.988C204.814 196.79 206.151 197.592 207.488 198.127C208.558 198.929 209.895 199.464 211.232 200.266L212.301 200.801L211.766 201.87L211.232 202.94C209.093 206.95 205.082 213.902 199.734 210.961C195.991 209.089 196.526 205.614 198.13 202.405C198.932 201.068 199.734 199.731 200.536 198.662C201.071 197.86 201.606 197.057 201.873 196.523L202.675 195.453L203.478 195.988ZM206.151 200.266C205.349 199.731 204.547 199.196 203.478 198.662C203.21 199.196 202.943 199.464 202.675 199.999C201.873 201.068 201.071 202.405 200.269 203.474C199.199 205.614 198.665 207.753 200.804 208.822C204.012 210.694 207.221 205.079 209.093 201.87C208.023 201.335 207.221 200.801 206.151 200.266Z" fill="#004A74"/>
<path d="M177.543 216.575C177.543 217.377 177.543 218.447 177.811 219.516C179.415 219.249 181.019 218.981 182.891 218.447C184.762 217.644 186.634 216.842 188.506 216.04C187.971 215.238 187.436 214.436 187.169 213.901L188.773 212.297C189.843 213.366 190.912 214.971 191.447 216.575C191.714 217.912 191.982 218.981 191.714 220.318C191.447 221.655 190.912 222.725 189.575 223.794C188.773 224.596 187.704 225.398 185.832 225.933C181.019 227.537 178.078 226.201 176.741 224.062C175.137 221.923 175.137 218.714 175.137 216.575H177.543ZM178.345 221.923C178.345 222.19 178.613 222.457 178.613 222.725C179.682 224.062 181.554 224.864 185.297 223.527C186.367 223.259 187.436 222.725 187.971 221.923C188.773 221.388 189.308 220.586 189.308 219.783C189.308 219.249 189.308 218.714 189.308 218.179C187.436 219.249 185.297 220.051 183.425 220.586C181.821 221.12 179.95 221.655 178.345 221.923Z" fill="#004A74"/>
<path d="M150.266 221.393C150.266 221.66 150.534 221.927 150.801 221.927C151.871 223.264 153.208 223.799 154.544 224.066C155.881 224.066 157.218 223.799 158.555 222.729C158.555 222.462 158.823 222.462 158.823 222.195C159.09 222.195 159.09 221.927 159.357 221.927C159.625 221.393 159.625 220.59 159.625 220.056C159.357 219.254 158.823 218.451 158.02 217.649C157.753 217.114 157.218 216.847 156.416 216.312C154.812 215.243 153.475 214.975 152.138 215.243C151.336 215.51 150.534 216.045 149.464 217.114C150.266 217.649 151.068 217.917 151.871 218.451C152.94 218.986 154.01 219.254 155.347 219.521L155.079 221.927C153.475 221.66 152.138 221.125 150.801 220.59C149.464 220.056 148.127 219.254 147.058 218.184L145.988 217.382L146.79 216.58C148.395 214.441 149.999 213.371 151.603 212.836C153.475 212.569 155.614 212.836 157.753 214.441C158.555 214.708 159.09 215.243 159.625 215.778C160.962 217.114 161.764 218.184 162.031 219.521C162.298 220.858 162.031 222.195 161.229 223.264C161.229 223.532 160.962 223.799 160.694 223.799C160.427 224.066 160.427 224.334 160.159 224.334C158.288 225.938 156.416 226.74 154.544 226.473C152.405 226.205 150.534 225.403 148.929 223.799C148.929 223.532 148.662 223.264 148.395 222.997L150.266 221.393Z" fill="#004A74"/>
<path d="M133.69 197.593C132.62 197.86 131.818 198.395 131.016 198.93C131.818 200.801 132.888 202.406 133.957 204.01C135.027 205.347 136.364 206.951 137.701 208.021C138.235 207.486 138.77 206.684 139.305 205.882L141.444 207.219C140.107 209.09 138.77 210.695 137.433 211.497C136.364 212.299 135.294 212.566 133.957 212.834C132.888 212.834 131.551 212.566 130.481 211.764C129.144 210.962 128.075 209.892 127.005 208.288C126.471 207.486 126.203 206.951 125.936 206.416C125.401 204.545 125.134 202.941 125.936 201.336C126.471 199.732 127.54 198.395 129.412 197.058C130.481 196.523 131.551 195.721 132.888 195.187L133.69 197.593ZM129.144 200.534C128.61 201.069 128.342 201.604 128.075 202.138C127.808 203.208 127.808 204.277 128.342 205.347C128.342 205.882 128.61 206.416 128.877 206.684C129.947 208.021 130.749 209.09 131.818 209.625C132.62 210.16 133.155 210.427 133.957 210.427C134.492 210.16 135.294 210.16 135.829 209.625C134.225 208.288 133.155 206.951 131.818 205.347C130.749 203.743 129.947 202.138 129.144 200.534Z" fill="#004A74"/>
</svg>
